<?xml version="1.0" encoding="UTF-8" standalone="no"?>
<!DOCTYPE svg PUBLIC "-//W3C//DTD SVG 1.1//EN" "http://www.w3.org/Graphics/SVG/1.1/DTD/svg11.dtd">
<svg width="100%" height="100%" viewBox="0 0 532 336" version="1.1" xmlns="http://www.w3.org/2000/svg" xmlns:xlink="http://www.w3.org/1999/xlink" xml:space="preserve" xmlns:serif="http://www.serif.com/" style="fill-rule:evenodd;clip-rule:evenodd;stroke-linejoin:round;stroke-miterlimit:2;">
    <g id="Artboard1" transform="matrix(1,0,0,1.00505,9.46883,7.82567)">
        <rect x="-9.469" y="-7.786" width="531.011" height="333.779" style="fill:none;"/>
        <g id="Asphalt-inner" transform="matrix(1,0,0,0.994971,0.531173,1.85213)">
            <g id="Editable">
                <path id="Asphalt-inner1" serif:id="Asphalt-inner" d="M8.833,289.74C9.468,289.949 11.5,288.47 13.355,287.318C20.304,283.004 33.236,273.776 58.745,255.555C67.765,249.111 80.859,239.78 87.842,234.817C94.784,229.884 104.729,222.588 109.939,218.605C115.196,214.585 118.602,212.837 120.665,211.601C121.151,211.31 121.823,211.269 122.314,211.19C122.741,211.122 123.196,211.111 123.611,211.132C124.012,211.151 124.413,211.209 124.802,211.311C125.199,211.415 125.631,211.541 125.997,211.757C126.471,212.036 127.2,212.544 127.645,212.985C128.061,213.397 128.49,213.852 128.671,214.407C129.088,215.682 129.85,217.712 130.149,220.636C130.307,222.191 130.95,223.965 131.243,224.712C137.434,223.767 172.401,217.461 176.544,216.527C184.344,214.769 195.821,209.801 223.67,196.356C243.991,186.546 251.977,182.9 259.641,182.769C264.869,182.68 270.015,184.193 278.73,186.855C323.621,200.566 330.003,205.336 355.235,243.874C379.385,280.759 404.914,301.997 434.554,309.229C445.054,311.791 451.671,312.8 457.207,310.271C462.856,307.691 467.145,301.657 473.389,291.296C477.562,284.371 480.46,279.162 481.931,274.998C482.954,272.1 483.308,269.951 482.324,268.085C480.646,264.904 476.392,262.71 469.817,259.517C452.798,251.254 442.71,246.375 436.656,242.805C431.197,239.586 428.599,237.093 427.133,234.574C425.636,232.003 425.263,229.287 424.848,225.265C424.236,219.341 424.729,217.243 427.418,212.856C431.542,206.129 431.886,200.26 428.222,194.113C426.6,191.391 425.59,189.985 421.006,188.089C415.148,185.664 404.685,182.666 384.218,176.818C363.966,171.032 350.262,166.843 340.922,162.67C330.434,157.984 325.012,153.106 321.903,146.592C319.362,141.268 318.439,134.687 317.897,125.714C317.132,113.052 318.311,105.506 322.994,99.975C327.478,94.677 335.608,91.076 350.056,86.998C388.662,76.101 401.829,71.681 420.723,63.215C429.085,59.468 434.825,56.844 439.136,55.497C442.739,54.372 445.564,54.075 448.033,54.463C450.762,54.892 453.157,56.11 455.624,58.367C458.368,60.877 461.345,64.948 465.721,70.834C471.283,78.315 476.426,83.427 481.034,85.935C483.443,87.246 485.566,87.838 487.415,87.145C489.355,86.418 490.739,84.444 491.925,81.567C492.459,80.271 492.914,79.243 492.878,78.075C492.841,76.882 492.285,75.617 491.241,73.827C488.223,68.656 481.649,60.734 469.125,45.806C457.277,31.682 450.069,22.845 444.679,17.669C441.782,14.887 439.634,13.275 437.381,12.715C435.685,12.293 433.987,12.538 431.927,13.057C429.15,13.756 425.895,14.96 421.686,16.372C415.271,18.525 410.871,19.842 407.575,20.304C404.675,20.711 402.422,20.513 400.444,19.842C397.416,18.816 394.927,16.573 391.783,12.565C389.393,9.521 386.968,8.464 383.171,8.859C379.497,9.241 373.65,11.653 311.718,36.521C231.409,68.768 209.867,77.281 197.343,84.89C192.392,87.898 188.15,91.482 183.644,94.9C178.055,99.14 169.572,105.968 163.807,110.331C145.254,124.371 135.056,130.644 129.22,132.18C113.053,136.436 106.939,140.473 101.95,151.425C98.026,160.039 92.105,167.222 68.213,191.217C36.445,223.122 28.964,234.069 16.006,268.025C12.655,276.805 10.592,282.365 9.545,286.063C9.067,287.753 8.198,289.531 8.833,289.74Z" style="fill:rgb(39,39,39);"/>
            </g>
        </g>
    </g>
</svg>
