<?xml version="1.0" encoding="UTF-8" standalone="no"?>
<!DOCTYPE svg PUBLIC "-//W3C//DTD SVG 1.1//EN" "http://www.w3.org/Graphics/SVG/1.1/DTD/svg11.dtd">
<svg width="100%" height="100%" viewBox="0 0 532 336" version="1.1" xmlns="http://www.w3.org/2000/svg" xmlns:xlink="http://www.w3.org/1999/xlink" xml:space="preserve" xmlns:serif="http://www.serif.com/" style="fill-rule:evenodd;clip-rule:evenodd;stroke-linejoin:round;stroke-miterlimit:2;">
    <g id="Artboard1" transform="matrix(1,0,0,1.00505,9.46883,7.82567)">
        <rect x="-9.469" y="-7.786" width="531.011" height="333.779" style="fill:none;"/>
        <g id="inner" transform="matrix(1,0,0,0.994971,-9.46883,-7.78632)">
            <path d="M297.109,71.209L297.167,70.935L297.383,71.03C297.336,71.137 297.23,71.209 297.109,71.209ZM107.95,261.344C113.971,263.838 120.597,263.829 127.155,264.021C132.219,264.169 137.261,264.388 141.645,267.356C141.777,267.445 141.913,267.527 142.053,267.603C146.61,270.067 146.526,276.371 143.651,280.258C143.443,280.539 143.266,280.843 143.124,281.162C141.194,285.502 136.577,288.344 131.864,287.132C131.791,287.113 131.717,287.096 131.642,287.081C115.285,283.693 99.15,278.502 84.037,271.351L84.035,271.357L84.033,271.355L84.034,271.35L83.982,271.325C70.43,265.12 62.714,251.358 58.576,237.608C49.408,206.881 41.194,175.8 34.68,144.394C34.494,143.345 34.314,142.295 34.143,141.243L33.888,141.542L34.142,141.239L34.125,141.134L33.87,141.432L34.124,141.132C33.615,137.995 33.198,134.958 33.001,131.786C32.994,131.674 32.983,131.563 32.969,131.451C31.81,122.723 35.778,113.44 43.796,109.384C43.869,109.347 43.941,109.309 44.012,109.268C77.281,90.248 115.532,83.031 152.581,75.054C162.903,73.727 171.029,67.059 179.281,61.181C179.36,61.125 179.437,61.066 179.512,61.005C183.446,57.827 188.022,57.52 192.663,57.982C198.445,58.558 204.357,60.318 209.798,61.101C221.826,63.488 235.304,60.779 243.099,50.499C247.748,45.086 254.553,41.262 261.827,42.176L261.836,42.177C268.784,43.84 273.391,48.9 277.931,54.102C283.618,60.617 289.156,67.43 296.85,71.12L296.98,71.15L296.858,71.124L296.98,71.18L297.109,71.209C297.067,71.209 297.026,71.2 296.988,71.183C321.898,82.179 348.19,89.757 373.688,99.338C411.716,113.804 451.821,123.886 487.295,144.331C487.451,144.42 487.611,144.501 487.775,144.572C495.33,147.865 498.372,156.52 498.236,164.305C498.141,168.679 496.182,172.276 493.524,175.399C490.428,179.037 486.395,182.053 482.611,184.762C462.356,198.219 448.593,218.323 432.919,236.443C432.763,236.624 432.62,236.816 432.493,237.018C430.776,239.732 427.732,242.041 425.55,244.7C423.338,247.396 421.825,250.366 421.663,253.784C421.601,255.079 422.067,256.344 422.953,257.291C424.996,259.475 427.621,261.57 429.633,263.999C430.887,265.514 431.928,267.169 431.713,269.329C431.077,274.983 427.927,279.458 423.747,283.045C419.532,286.663 414.268,289.379 409.442,291.481C409.357,291.518 409.273,291.558 409.19,291.6C404.269,294.092 399.061,293.727 394.056,292.19C388.305,290.423 382.8,287.117 378.053,283.973L378.038,284.023L378.033,284.013L378.046,283.969L377.928,283.894L377.921,283.889C354.122,269.224 328.504,257.657 304.246,243.739C298.904,240.336 292.78,237.296 287.334,233.548C282.667,230.337 278.484,226.61 276.159,221.337C274.239,213.401 274.628,205.078 274.551,196.852C274.462,187.411 273.789,178.097 269.625,169.445C269.561,169.312 269.491,169.182 269.415,169.056C260.084,153.518 244.529,143.238 232.243,130.219C230.344,127.968 227.568,125.576 225.54,122.899C224.541,121.579 223.611,120.21 223.862,118.615C226.015,115.986 229.024,114.434 232.137,113.015C236.488,111.032 241.08,109.358 244.932,106.829C245.055,106.748 245.174,106.662 245.289,106.571C246.67,105.47 249.567,104.198 251.255,102.568C251.613,102.223 251.936,101.865 252.222,101.498L252.239,101.475L253.093,100.136C253.107,100.113 253.119,100.088 253.127,100.062L253.846,97.72C253.856,97.688 253.861,97.654 253.859,97.62L253.773,95.404C253.772,95.374 253.766,95.343 253.756,95.314L253.023,93.274L253.006,93.236C252.6,92.463 251.99,91.815 251.242,91.362C240.208,84.686 226.521,83.595 213.939,83.929C206.21,83.808 199.219,87.074 194.854,93.691C163.46,139.636 133.106,186.423 103.097,233.342C100.351,237.216 98.618,242.662 98.855,247.693C99.13,253.538 101.873,258.803 107.934,261.338L107.95,261.344ZM107.934,261.338L108.049,261.361L108.039,261.362L107.934,261.338ZM108.039,261.362L108.064,261.367C108.025,261.367 107.986,261.359 107.95,261.344C107.992,261.36 108.023,261.362 108.039,261.362ZM108.064,261.367L108.119,261.09L108.342,261.181C108.297,261.292 108.188,261.367 108.064,261.367Z" style="fill:rgb(39,39,39);"/>
        </g>
    </g>
</svg>
