<?xml version="1.0" encoding="UTF-8" standalone="no"?>
<!DOCTYPE svg PUBLIC "-//W3C//DTD SVG 1.1//EN" "http://www.w3.org/Graphics/SVG/1.1/DTD/svg11.dtd">
<svg width="100%" height="100%" viewBox="0 0 532 336" version="1.1" xmlns="http://www.w3.org/2000/svg" xmlns:xlink="http://www.w3.org/1999/xlink" xml:space="preserve" xmlns:serif="http://www.serif.com/" style="fill-rule:evenodd;clip-rule:evenodd;stroke-linejoin:round;stroke-miterlimit:2;">
    <g id="Artboard1" transform="matrix(1,0,0,1.00505,9.46883,7.82567)">
        <rect x="-9.469" y="-7.786" width="531.011" height="333.779" style="fill:none;"/>
        <g id="shape" transform="matrix(0.941248,-0.467439,0.469802,0.936514,-17.9833,116.98)">
            <path d="M225.513,82.744C219.7,75.665 211.158,70.945 202.989,67.141C202.928,67.113 202.868,67.083 202.808,67.052C198.979,65.044 194.671,64.806 190.844,67.028L190.778,67.065C144.593,92.803 98.949,119.693 53.541,146.839C53.474,146.879 53.406,146.918 53.337,146.954C50.943,148.213 48.651,150.54 47.49,153.169C46.605,155.172 46.42,157.416 48.022,159.278C51.384,163.143 56.175,165.271 60.72,167.708C66.385,170.746 71.72,174.169 75.049,179.965C80.71,188.27 76.375,199.47 68.11,203.968C61.38,209.25 51.684,209.613 45.025,203.904C32.038,193.665 20.048,181.925 9.832,168.924C-0.666,155.895 -2.023,138.3 0.714,122.415L0.716,122.405C6.01,92.107 12.278,61.913 20.143,32.17L20.177,32.05C20.449,31.129 20.726,30.21 21.01,29.292C21.035,29.179 21.065,29.067 21.1,28.956C22.071,25.839 23.133,22.75 24.399,19.749C28.338,8.47 38.947,-0.135 51.126,-0.251C88.436,-2.336 124.978,7.886 160.777,17.057C160.904,17.089 161.029,17.128 161.153,17.172C169.105,20.01 177.388,17.677 185.477,16.395C192.576,14.872 198.759,17.008 204.439,20.587C209.25,23.618 213.668,27.735 218.091,30.782C218.16,30.83 218.228,30.879 218.294,30.931C224.955,36.123 234.014,39.13 241.965,35.147C242.043,35.108 242.123,35.071 242.203,35.037C251.28,31.166 262.054,31.07 270.43,36.807C270.532,36.877 270.631,36.951 270.726,37.029C277.553,42.63 280.308,50.503 282.452,58.737C284.213,65.504 285.489,72.536 289.708,78C306.112,97.777 325.13,115.244 342.62,134.08L342.631,134.092C369.102,162.831 399.162,188.76 420.907,221.514C428.086,230.287 427.289,242.792 422.323,252.314L422.316,252.327C416.757,262.899 404.579,266.014 393.822,267.73L393.671,267.751C371.607,270.468 352.195,281.448 331.983,289.893C329.517,291.307 326.413,292.169 323.521,293.253C322.296,293.712 321.073,294.155 320.141,294.908C320.937,297.172 321.878,299.524 322.428,301.885C323.386,306.003 323.28,310.128 320.767,314.075L320.751,314.1C313.145,325.866 297.502,328.178 284.651,327.526C277.051,327.536 270.726,324.147 265.494,319.164C260.759,314.655 256.94,308.822 253.841,303.452C239.862,280.948 223.024,260.304 208.35,238.231C208.313,238.175 208.276,238.117 208.242,238.059C205.086,232.785 201.088,227.48 197.979,221.859C194.495,215.56 192.116,208.875 192.592,201.531C192.606,201.314 192.636,201.099 192.683,200.887C194.526,192.519 198.688,184.835 202.474,177.069C205.807,170.232 208.862,163.332 209.022,155.604C207.672,139.092 198.93,124.392 194.215,108.714C194.19,108.629 194.167,108.544 194.147,108.458C193.315,104.911 191.418,100.511 191.12,96.449C190.84,92.633 191.731,89.063 194.703,86.132C195.001,85.838 195.341,85.589 195.712,85.394C200.23,83.013 205.187,82.617 210.249,82.796C214.288,82.938 218.391,83.473 222.259,83.04C223.133,82.885 224.295,82.826 225.513,82.744ZM29.313,31.4L29.282,31.502C28.98,32.472 28.686,33.444 28.398,34.418C20.604,63.904 14.393,93.836 9.145,123.872C6.814,137.402 7.555,152.467 16.499,163.562L16.532,163.605C26.364,176.121 37.901,187.402 50.392,197.241C50.446,197.283 50.498,197.326 50.549,197.37C54.148,200.494 59.439,200.037 63.028,197.077C63.269,196.879 63.53,196.707 63.808,196.566C68.049,194.406 70.856,188.879 67.926,184.706C67.844,184.59 67.769,184.47 67.699,184.346C65.202,179.912 60.968,177.549 56.677,175.247C51.211,172.317 45.599,169.533 41.558,164.882L41.548,164.87C37.549,160.233 37.46,154.701 39.664,149.713C41.574,145.388 45.314,141.541 49.245,139.44C94.686,112.274 140.365,85.366 186.571,59.616C193.007,55.889 200.244,56.081 206.681,59.423C217.478,64.458 228.615,71.159 235.138,81.478C235.554,82.136 235.782,82.895 235.799,83.674L235.556,85.72L234.689,87.641L233.082,89.328L231.786,90.105C231.399,90.29 230.984,90.452 230.547,90.59C228.428,91.256 225.435,91.106 223.8,91.454C223.672,91.482 223.543,91.503 223.413,91.518C219.077,92.032 214.475,91.506 209.947,91.346C206.628,91.229 203.342,91.281 200.336,92.651C199.348,93.976 199.541,95.638 199.85,97.29C200.44,100.435 201.789,103.657 202.446,106.378C207.363,122.652 216.23,137.982 217.568,155.143C217.578,155.274 217.583,155.405 217.581,155.537C217.45,164.621 214.078,172.788 210.164,180.817C206.724,187.874 202.848,194.815 201.111,202.406C200.839,207.944 202.829,212.951 205.465,217.718C208.51,223.223 212.431,228.413 215.531,233.58C230.255,255.715 247.133,276.428 261.149,299.003L261.221,299.123C263.936,303.834 267.233,309.006 271.394,312.969C275.051,316.452 279.393,319.001 284.715,318.971C284.797,318.97 284.88,318.972 284.962,318.976C295.012,319.5 307.6,318.664 313.565,309.458C314.709,307.641 314.536,305.719 314.095,303.824C313.414,300.898 312.069,297.996 311.256,295.266C310.927,294.159 311.059,292.965 311.624,291.956C313.183,289.172 315.686,287.329 318.655,286.001C321.65,284.661 325.23,283.984 327.852,282.398C328.034,282.288 328.224,282.192 328.42,282.11C349.421,273.361 369.638,262.11 392.55,259.269C396.944,258.567 401.681,257.707 405.883,255.917C409.529,254.364 412.771,252.093 414.741,248.352C418.213,241.69 419.29,232.909 414.187,226.812C414.084,226.69 413.989,226.562 413.901,226.429C392.399,193.967 362.56,168.355 336.346,139.896C318.73,120.926 299.588,103.323 283.073,83.4L282.988,83.295C278.034,76.92 276.233,68.81 274.172,60.892C272.503,54.479 270.701,48.164 265.441,43.761C259.557,39.826 252.03,40.18 245.679,42.854C234.781,48.245 222.28,44.839 213.139,37.76C208.84,34.782 204.555,30.772 199.878,27.825C196.064,25.422 191.97,23.726 187.196,24.776C187.112,24.795 187.027,24.811 186.942,24.824C177.47,26.314 167.771,28.541 158.471,25.297C123.54,16.346 87.91,6.241 51.506,8.296C51.433,8.3 51.361,8.303 51.288,8.303C42.626,8.349 35.201,14.64 32.442,22.668C32.41,22.762 32.374,22.855 32.335,22.947C31.152,25.738 30.215,28.507 29.313,31.4Z" style="fill:rgb(39,39,39);stroke:rgb(39,39,39);stroke-width:0.57px;"/>
        </g>
    </g>
</svg>
