<?xml version="1.0" encoding="UTF-8" standalone="no"?>
<!DOCTYPE svg PUBLIC "-//W3C//DTD SVG 1.1//EN" "http://www.w3.org/Graphics/SVG/1.1/DTD/svg11.dtd">
<svg width="100%" height="100%" viewBox="0 0 532 336" version="1.1" xmlns="http://www.w3.org/2000/svg" xmlns:xlink="http://www.w3.org/1999/xlink" xml:space="preserve" xmlns:serif="http://www.serif.com/" style="fill-rule:evenodd;clip-rule:evenodd;stroke-linejoin:round;stroke-miterlimit:2;">
    <g id="Artboard1" transform="matrix(1,0,0,1.00505,9.46883,7.82567)">
        <rect x="-9.469" y="-7.786" width="531.011" height="333.779" style="fill:none;"/>
        <clipPath id="_clip1">
            <rect x="-9.469" y="-7.786" width="531.011" height="333.779"/>
        </clipPath>
        <g clip-path="url(#_clip1)">
            <g id="Editable" transform="matrix(1,0,0,0.994971,-9.46883,-7.78632)">
                <path id="Asphalt-outer" d="M531.79,-0.667L531.579,336.162L-0.676,335.669L-0.676,-0.632L531.79,-0.667ZM131.356,230.846C131.459,230.777 131.381,231.09 131.394,231.217C131.846,235.644 133.347,239.064 134.845,240.644C135.243,241.064 135.658,241.475 136.127,241.814C136.606,242.161 137.152,242.489 137.716,242.722C138.285,242.958 138.922,243.138 139.539,243.227C140.156,243.316 140.802,243.363 141.42,243.256C149.576,241.852 184.003,235.808 188.48,234.799C196.583,232.972 208.562,227.937 237.496,213.968C255.839,205.113 262.874,201.373 269.792,201.255C274.286,201.178 278.667,202.67 286.159,204.958C328.232,217.809 334.225,222.263 357.873,258.381C383.537,297.58 410.97,319.78 442.468,327.466C455.617,330.674 463.93,331.13 470.863,327.963C477.681,324.848 483.39,318.03 490.926,305.525C496.497,296.28 499.893,289.717 501.106,284.69C502.164,280.3 501.756,276.793 500.107,273.666C497.83,269.348 492.588,265.623 483.66,261.288C466.966,253.183 457.064,248.413 451.125,244.911C447.586,242.825 445.689,241.467 444.738,239.834C443.817,238.252 443.856,236.522 443.601,234.048C443.262,230.761 443.429,229.576 444.921,227.142C451.045,217.152 451.222,208.424 445.782,199.295C443.202,194.967 441.658,192.66 434.371,189.644C428.36,187.157 417.636,184.044 396.636,178.044C376.938,172.416 363.596,168.381 354.512,164.323C346.575,160.777 342.198,157.418 339.845,152.489C337.706,148.006 337.137,142.426 336.681,134.87C336.105,125.336 336.185,119.512 339.71,115.347C343.433,110.949 350.452,108.54 362.446,105.154C401.718,94.069 415.101,89.545 434.321,80.933C440.988,77.946 445.905,75.687 449.747,74.274C452.729,73.177 454.84,72.557 456.668,72.844C458.187,73.082 459.336,74.095 460.759,75.62C462.923,77.937 465.329,81.293 468.659,85.772C475.55,95.039 482.091,101.023 487.722,103.817C492.479,106.177 496.801,106.459 500.502,105.073C504.335,103.637 507.719,100.292 510.061,94.606C511.138,91.993 511.746,89.845 511.674,87.492C511.602,85.165 510.878,82.569 508.841,79.079C505.698,73.692 466.301,26.317 460.774,21.009C456.392,16.801 452.913,14.71 449.506,13.862C444.171,12.535 438.711,14.42 428.886,17.717C424.058,19.337 420.503,20.467 417.728,21.036C415.811,21.429 414.438,21.592 413.27,21.196C411.577,20.622 410.463,19.06 408.705,16.82C404.148,11.013 399.503,9.04 392.261,9.793C388.471,10.187 382.328,12.387 318.438,38.042C234.45,71.767 213.661,80.114 201.07,88.102C196.561,90.963 192.425,94.436 188.171,97.696C182.359,102.15 172.365,110.153 166.196,114.828C150.784,126.506 142.146,131.997 136.98,133.357C117.17,138.572 110.055,144.044 103.942,157.464C100.251,165.566 94.45,172.125 71.977,194.695C38.959,227.856 31.252,239.282 17.784,274.575C14.297,283.712 12.167,289.505 11.078,293.353C10.156,296.61 10.071,298.862 10.066,300.38C10.065,301.007 10.135,301.576 10.268,302.101C10.703,303.82 11.803,305.072 13.204,306.335C13.733,306.812 14.204,307.208 14.772,307.536C15.34,307.865 15.96,308.182 16.613,308.306C17.383,308.453 18.228,308.591 19.394,308.416C20.635,308.231 22.188,307.732 24.19,306.687C30.061,303.622 42.777,294.605 73.86,272.403C82.875,265.963 95.96,256.637 102.939,251.678C109.96,246.689 120.016,239.311 125.284,235.282C127.794,233.363 130.337,231.524 131.356,230.846Z" style="fill:rgb(39,39,39);"/>
            </g>
        </g>
    </g>
</svg>
