<?xml version="1.0" encoding="UTF-8" standalone="no"?>
<!DOCTYPE svg PUBLIC "-//W3C//DTD SVG 1.1//EN" "http://www.w3.org/Graphics/SVG/1.1/DTD/svg11.dtd">
<svg width="100%" height="100%" viewBox="0 0 532 336" version="1.1" xmlns="http://www.w3.org/2000/svg" xmlns:xlink="http://www.w3.org/1999/xlink" xml:space="preserve" xmlns:serif="http://www.serif.com/" style="fill-rule:evenodd;clip-rule:evenodd;stroke-linejoin:round;stroke-miterlimit:2;">
    <g id="Artboard1" transform="matrix(1,0,0,1.00505,9.46883,7.82567)">
        <rect x="-9.469" y="-7.786" width="531.011" height="333.779" style="fill:none;"/>
        <g id="outer" transform="matrix(1,0,0,0.994971,-9.46883,-7.78632)">
            <path d="M531.011,0L531.011,335.466L0,335.466L0,0L531.011,0ZM242.623,97.333C241.515,97.982 240.449,98.584 239.699,99.14C236.261,101.365 232.148,102.789 228.279,104.553C223.432,106.762 218.951,109.464 215.817,113.828C215.56,114.186 215.357,114.579 215.214,114.996C213.793,119.151 214.633,122.931 216.688,126.39C218.877,130.074 222.73,133.323 225.18,136.272C225.239,136.343 225.3,136.413 225.364,136.481C237.167,149.022 252.303,158.752 261.33,173.659C264.81,181.009 265.176,188.938 265.251,196.939C265.336,206.028 265.029,215.216 267.225,223.958C267.281,224.179 267.353,224.396 267.442,224.607C270.444,231.743 275.824,236.917 282.062,241.21C287.63,245.041 293.886,248.155 299.333,251.637C299.393,251.675 299.454,251.712 299.516,251.748C323.697,265.63 349.245,277.151 372.975,291.765C378.415,295.364 384.75,299.06 391.325,301.08C398.591,303.311 406.136,303.53 413.285,299.95C425.687,294.526 439.325,285.001 440.957,270.353L440.96,270.322C441.471,265.426 439.633,261.493 436.796,258.067C435.17,256.104 433.179,254.332 431.366,252.575C431.889,251.428 432.832,250.437 433.77,249.429C435.983,247.051 438.499,244.781 440.156,242.291C455.212,224.847 468.326,205.392 487.818,192.469L487.95,192.378C497.268,185.71 507.268,177.056 507.534,164.494L507.534,164.479C507.735,153.182 502.61,141.038 491.731,136.153C455.876,115.539 415.401,105.256 376.983,90.642L376.966,90.635C351.655,81.123 325.549,73.617 300.817,62.708C294.279,59.548 289.774,53.528 284.937,47.986C279.052,41.243 272.76,35.127 263.702,33.063C263.576,33.034 263.448,33.01 263.32,32.993C252.74,31.528 242.644,36.68 235.919,44.587C235.859,44.657 235.802,44.729 235.747,44.803C230.134,52.287 220.195,53.713 211.485,51.955C211.399,51.938 211.312,51.923 211.225,51.911C205.63,51.12 199.538,49.321 193.585,48.728C186.558,48.028 179.734,48.922 173.768,53.691C166.756,58.698 160.056,64.785 151.238,65.849C151.101,65.866 150.964,65.889 150.829,65.918C112.825,74.104 73.628,81.651 39.49,101.141C28.081,106.972 22.137,120.056 23.73,132.522C23.948,135.942 24.399,139.349 24.949,142.738C24.969,142.86 24.993,142.979 25.022,143.097C25.186,144.094 25.358,145.09 25.534,146.084L25.559,146.213C32.13,177.904 40.415,209.268 49.666,240.273L49.669,240.283C54.555,256.522 64.099,272.445 80.101,279.777C95.824,287.215 112.625,292.632 129.66,296.167C138.609,298.413 147.566,293.516 151.419,285.383C157.084,277.266 155.903,264.687 146.673,259.53C140.816,255.639 134.187,254.923 127.427,254.725C122.005,254.566 116.495,254.814 111.516,252.755C109.133,251.755 108.253,249.556 108.144,247.256C108.002,244.236 109.066,240.968 110.728,238.659C110.776,238.592 110.822,238.524 110.866,238.455C140.853,191.571 171.183,144.817 202.563,98.894L202.607,98.828C205.165,94.938 209.332,93.138 213.88,93.229C213.95,93.231 214.021,93.23 214.092,93.228C223.568,92.971 233.826,93.4 242.623,97.333Z" style="fill:rgb(39,39,39);"/>
        </g>
    </g>
</svg>
