<?xml version="1.0" encoding="UTF-8" standalone="no"?>
<!DOCTYPE svg PUBLIC "-//W3C//DTD SVG 1.1//EN" "http://www.w3.org/Graphics/SVG/1.1/DTD/svg11.dtd">
<svg width="100%" height="100%" viewBox="0 0 532 336" version="1.1" xmlns="http://www.w3.org/2000/svg" xmlns:xlink="http://www.w3.org/1999/xlink" xml:space="preserve" xmlns:serif="http://www.serif.com/" style="fill-rule:evenodd;clip-rule:evenodd;stroke-linejoin:round;">
    <g id="Artboard1" transform="matrix(1,0,0,1.00505,9.46883,7.82567)">
        <rect x="-9.469" y="-7.786" width="531.011" height="333.779" style="fill:none;"/>
        <g id="curve" transform="matrix(0.941248,-0.467439,0.469802,0.936514,-17.9833,116.98)">
            <path d="M25.198,30.229C24.883,31.238 24.579,32.25 24.279,33.263C16.445,62.889 10.203,92.963 4.93,123.141C2.395,137.851 3.444,154.184 13.168,166.247C23.209,179.029 34.988,190.553 47.745,200.601C52.937,205.106 60.571,204.647 65.749,200.378C72.167,197.11 75.86,188.562 71.426,182.248C65.601,171.902 52.189,170.597 44.787,162.077C39.183,155.578 44.978,146.517 51.346,143.168C96.791,115.999 142.473,89.088 188.696,63.329C193.845,60.339 199.642,60.561 204.795,63.263C214.895,67.966 225.419,74.108 231.522,83.763C231.603,87.625 225.473,86.724 222.909,87.271C214.659,88.248 205.397,85.124 197.706,89.178C192.716,94.098 197.001,101.888 198.311,107.482C203.133,123.514 211.985,138.575 213.303,155.475C213.061,172.36 200.402,185.727 196.86,201.807C196.017,214.817 205.65,225.395 211.912,235.863C226.624,257.993 243.504,278.693 257.514,301.259C263.332,311.352 271.767,323.323 284.739,323.248C296.209,323.846 310.368,322.281 317.158,311.778C320.831,306.008 317.028,299.662 315.356,294.046C318.117,289.116 325.464,288.841 330.065,286.058C350.733,277.448 370.596,266.282 393.148,263.505C402.644,261.991 413.622,259.669 418.53,250.336C422.768,242.21 423.694,231.506 417.467,224.066C395.838,191.412 365.854,165.618 339.485,136.99C321.923,118.077 302.832,100.533 286.366,80.67C277.165,68.83 280.207,50.339 268.013,40.336C260.854,35.433 251.638,35.664 243.881,38.971C234.423,43.709 223.588,40.481 215.664,34.305C206.909,28.273 198.199,17.975 186.277,20.599C177.439,21.989 168.392,24.298 159.715,21.2C124.305,12.129 88.171,1.941 51.265,4.025C40.794,4.081 31.732,11.573 28.397,21.277C27.158,24.198 26.127,27.2 25.184,30.228L25.198,30.229Z" style="fill:none;fill-rule:nonzero;stroke:rgb(39,39,39);stroke-width:8.56px;"/>
        </g>
        <g id="white-carb" serif:id="white carb" transform="matrix(0.941248,-0.467439,0.469802,0.936514,-17.9833,116.98)">
            <path d="M225.513,82.744C219.7,75.665 211.158,70.945 202.989,67.141C202.928,67.113 202.868,67.083 202.808,67.052C198.979,65.044 194.671,64.806 190.844,67.028L190.778,67.065C144.593,92.803 98.949,119.693 53.541,146.839C53.474,146.879 53.406,146.918 53.337,146.954C50.943,148.213 48.651,150.54 47.49,153.169C46.605,155.172 46.42,157.416 48.022,159.278C51.384,163.143 56.175,165.271 60.72,167.708C66.385,170.746 71.72,174.169 75.049,179.965C80.71,188.27 76.375,199.47 68.11,203.968C61.38,209.25 51.684,209.613 45.025,203.904C32.038,193.665 20.048,181.925 9.832,168.924C-0.666,155.895 -2.023,138.3 0.714,122.415L0.716,122.405C6.01,92.107 12.278,61.913 20.143,32.17L20.177,32.05C20.449,31.129 20.726,30.21 21.01,29.292C21.035,29.179 21.065,29.067 21.1,28.956C22.071,25.839 23.133,22.75 24.399,19.749C28.338,8.47 38.947,-0.135 51.126,-0.251C88.436,-2.336 124.978,7.886 160.777,17.057C160.904,17.089 161.029,17.128 161.153,17.172C169.105,20.01 177.388,17.677 185.477,16.395C192.576,14.872 198.759,17.008 204.439,20.587C209.25,23.618 213.668,27.735 218.091,30.782C218.16,30.83 218.228,30.879 218.294,30.931C224.955,36.123 234.014,39.13 241.965,35.147C242.043,35.108 242.123,35.071 242.203,35.037C251.28,31.166 262.054,31.07 270.43,36.807C270.532,36.877 270.631,36.951 270.726,37.029C277.553,42.63 280.308,50.503 282.452,58.737C284.213,65.504 285.489,72.536 289.708,78C306.112,97.777 325.13,115.244 342.62,134.08L342.631,134.092C369.102,162.831 399.162,188.76 420.907,221.514C428.086,230.287 427.289,242.792 422.323,252.314L422.316,252.327C416.757,262.899 404.579,266.014 393.822,267.73L393.671,267.751C371.607,270.468 352.195,281.448 331.983,289.893C329.517,291.307 326.413,292.169 323.521,293.253C322.296,293.712 321.073,294.155 320.141,294.908C320.937,297.172 321.878,299.524 322.428,301.885C323.386,306.003 323.28,310.128 320.767,314.075L320.751,314.1C313.145,325.866 297.502,328.178 284.651,327.526C277.051,327.536 270.726,324.147 265.494,319.164C260.759,314.655 256.94,308.822 253.841,303.452C239.862,280.948 223.024,260.304 208.35,238.231C208.313,238.175 208.276,238.117 208.242,238.059C205.086,232.785 201.088,227.48 197.979,221.859C194.495,215.56 192.116,208.875 192.592,201.531C192.606,201.314 192.636,201.099 192.683,200.887C194.526,192.519 198.688,184.835 202.474,177.069C205.807,170.232 208.862,163.332 209.022,155.604C207.672,139.092 198.93,124.392 194.215,108.714C194.19,108.629 194.167,108.544 194.147,108.458C193.315,104.911 191.418,100.511 191.12,96.449C190.84,92.633 191.731,89.063 194.703,86.132C195.001,85.838 195.341,85.589 195.712,85.394C200.23,83.013 205.187,82.617 210.249,82.796C214.288,82.938 218.391,83.473 222.259,83.04C223.133,82.885 224.295,82.826 225.513,82.744ZM29.312,31.399L29.282,31.502C28.98,32.472 28.686,33.444 28.398,34.418C20.604,63.904 14.393,93.836 9.145,123.872C6.814,137.402 7.555,152.467 16.499,163.562L16.532,163.605C26.364,176.121 37.901,187.402 50.392,197.241C50.446,197.283 50.498,197.326 50.549,197.37C54.148,200.494 59.439,200.037 63.028,197.077C63.269,196.879 63.53,196.707 63.808,196.566C68.049,194.406 70.856,188.879 67.926,184.706C67.844,184.59 67.769,184.47 67.699,184.346C65.202,179.912 60.968,177.549 56.677,175.247C51.211,172.317 45.599,169.533 41.558,164.882L41.548,164.87C37.549,160.233 37.46,154.701 39.664,149.713C41.574,145.388 45.314,141.541 49.245,139.44C94.686,112.274 140.365,85.366 186.571,59.616C193.007,55.889 200.244,56.081 206.681,59.423C217.478,64.458 228.615,71.159 235.138,81.478C235.554,82.136 235.782,82.895 235.799,83.674L235.556,85.72L234.689,87.641L233.082,89.328L231.786,90.105C231.399,90.29 230.984,90.452 230.547,90.59C228.428,91.256 225.435,91.106 223.8,91.454C223.672,91.482 223.543,91.503 223.413,91.518C219.077,92.032 214.475,91.506 209.947,91.346C206.628,91.229 203.342,91.281 200.336,92.651C199.348,93.976 199.541,95.638 199.85,97.29C200.44,100.435 201.789,103.657 202.446,106.378C207.363,122.652 216.23,137.982 217.568,155.143C217.578,155.274 217.583,155.405 217.581,155.537C217.45,164.621 214.078,172.788 210.164,180.817C206.724,187.874 202.848,194.815 201.111,202.406C200.839,207.944 202.829,212.951 205.465,217.718C208.51,223.223 212.431,228.413 215.531,233.58C230.255,255.715 247.133,276.428 261.149,299.003L261.221,299.123C263.936,303.834 267.233,309.006 271.394,312.969C275.051,316.452 279.393,319.001 284.715,318.971C284.797,318.97 284.88,318.972 284.962,318.976C295.012,319.5 307.6,318.664 313.565,309.458C314.709,307.641 314.536,305.719 314.095,303.824C313.414,300.898 312.069,297.996 311.256,295.266C310.927,294.159 311.059,292.965 311.624,291.956C313.183,289.172 315.686,287.329 318.655,286.001C321.65,284.661 325.23,283.984 327.852,282.398C328.034,282.288 328.224,282.192 328.42,282.11C349.421,273.361 369.638,262.11 392.55,259.269C396.944,258.567 401.681,257.707 405.883,255.917C409.529,254.364 412.771,252.093 414.741,248.352C418.213,241.69 419.29,232.909 414.187,226.812C414.084,226.69 413.989,226.562 413.901,226.429C392.399,193.967 362.56,168.355 336.346,139.896C318.73,120.926 299.588,103.323 283.073,83.4L282.988,83.295C278.034,76.92 276.233,68.81 274.172,60.892C272.503,54.479 270.701,48.164 265.441,43.761C259.557,39.826 252.03,40.18 245.679,42.854C234.781,48.245 222.28,44.839 213.139,37.76C208.84,34.782 204.555,30.772 199.878,27.825C196.064,25.422 191.97,23.726 187.196,24.776C187.112,24.795 187.027,24.811 186.942,24.824C177.47,26.314 167.771,28.541 158.471,25.297C123.54,16.346 87.91,6.241 51.506,8.296C51.433,8.3 51.361,8.303 51.288,8.303C42.626,8.349 35.201,14.64 32.442,22.668C32.41,22.762 32.374,22.855 32.335,22.947C31.152,25.738 30.214,28.505 29.312,31.399Z" style="fill:rgb(39,39,39);fill-opacity:0;stroke:white;stroke-width:1.9px;stroke-miterlimit:2;"/>
        </g>
        <g id="red-carb" serif:id="red carb" transform="matrix(0.941248,-0.467439,0.469802,0.936514,-17.9833,116.98)">
            <path d="M225.513,82.744C219.7,75.665 211.158,70.945 202.989,67.141C202.928,67.113 202.868,67.083 202.808,67.052C198.979,65.044 194.671,64.806 190.844,67.028L190.778,67.065C144.593,92.803 98.949,119.693 53.541,146.839C53.474,146.879 53.406,146.918 53.337,146.954C50.943,148.213 48.651,150.54 47.49,153.169C46.605,155.172 46.42,157.416 48.022,159.278C51.384,163.143 56.175,165.271 60.72,167.708C66.385,170.746 71.72,174.169 75.049,179.965C80.71,188.27 76.375,199.47 68.11,203.968C61.38,209.25 51.684,209.613 45.025,203.904C32.038,193.665 20.048,181.925 9.832,168.924C-0.666,155.895 -2.023,138.3 0.714,122.415L0.716,122.405C6.01,92.107 12.278,61.913 20.143,32.17L20.177,32.05C20.449,31.129 20.726,30.21 21.01,29.292C21.035,29.179 21.065,29.067 21.1,28.956C22.071,25.839 23.133,22.75 24.399,19.749C28.338,8.47 38.947,-0.135 51.126,-0.251C88.436,-2.336 124.978,7.886 160.777,17.057C160.904,17.089 161.029,17.128 161.153,17.172C169.105,20.01 177.388,17.677 185.477,16.395C192.576,14.872 198.759,17.008 204.439,20.587C209.25,23.618 213.668,27.735 218.091,30.782C218.16,30.83 218.228,30.879 218.294,30.931C224.955,36.123 234.014,39.13 241.965,35.147C242.043,35.108 242.123,35.071 242.203,35.037C251.28,31.166 262.054,31.07 270.43,36.807C270.532,36.877 270.631,36.951 270.726,37.029C277.553,42.63 280.308,50.503 282.452,58.737C284.213,65.504 285.489,72.536 289.708,78C306.112,97.777 325.13,115.244 342.62,134.08L342.631,134.092C369.102,162.831 399.162,188.76 420.907,221.514C428.086,230.287 427.289,242.792 422.323,252.314L422.316,252.327C416.757,262.899 404.579,266.014 393.822,267.73L393.671,267.751C371.607,270.468 352.195,281.448 331.983,289.893C329.517,291.307 326.413,292.169 323.521,293.253C322.296,293.712 321.073,294.155 320.141,294.908C320.937,297.172 321.878,299.524 322.428,301.885C323.386,306.003 323.28,310.128 320.767,314.075L320.751,314.1C313.145,325.866 297.502,328.178 284.651,327.526C277.051,327.536 270.726,324.147 265.494,319.164C260.759,314.655 256.94,308.822 253.841,303.452C239.862,280.948 223.024,260.304 208.35,238.231C208.313,238.175 208.276,238.117 208.242,238.059C205.086,232.785 201.088,227.48 197.979,221.859C194.495,215.56 192.116,208.875 192.592,201.531C192.606,201.314 192.636,201.099 192.683,200.887C194.526,192.519 198.688,184.835 202.474,177.069C205.807,170.232 208.862,163.332 209.022,155.604C207.672,139.092 198.93,124.392 194.215,108.714C194.19,108.629 194.167,108.544 194.147,108.458C193.315,104.911 191.418,100.511 191.12,96.449C190.84,92.633 191.731,89.063 194.703,86.132C195.001,85.838 195.341,85.589 195.712,85.394C200.23,83.013 205.187,82.617 210.249,82.796C214.288,82.938 218.391,83.473 222.259,83.04C223.133,82.885 224.295,82.826 225.513,82.744ZM29.312,31.399L29.282,31.502C28.98,32.472 28.686,33.444 28.398,34.418C20.604,63.904 14.393,93.836 9.145,123.872C6.814,137.402 7.555,152.467 16.499,163.562L16.532,163.605C26.364,176.121 37.901,187.402 50.392,197.241C50.446,197.283 50.498,197.326 50.549,197.37C54.148,200.494 59.439,200.037 63.028,197.077C63.269,196.879 63.53,196.707 63.808,196.566C68.049,194.406 70.856,188.879 67.926,184.706C67.844,184.59 67.769,184.47 67.699,184.346C65.202,179.912 60.968,177.549 56.677,175.247C51.211,172.317 45.599,169.533 41.558,164.882L41.548,164.87C37.549,160.233 37.46,154.701 39.664,149.713C41.574,145.388 45.314,141.541 49.245,139.44C94.686,112.274 140.365,85.366 186.571,59.616C193.007,55.889 200.244,56.081 206.681,59.423C217.478,64.458 228.615,71.159 235.138,81.478C235.554,82.136 235.782,82.895 235.799,83.674L235.556,85.72L234.689,87.641L233.082,89.328L231.786,90.105C231.399,90.29 230.984,90.452 230.547,90.59C228.428,91.256 225.435,91.106 223.8,91.454C223.672,91.482 223.543,91.503 223.413,91.518C219.077,92.032 214.475,91.506 209.947,91.346C206.628,91.229 203.342,91.281 200.336,92.651C199.348,93.976 199.541,95.638 199.85,97.29C200.44,100.435 201.789,103.657 202.446,106.378C207.363,122.652 216.23,137.982 217.568,155.143C217.578,155.274 217.583,155.405 217.581,155.537C217.45,164.621 214.078,172.788 210.164,180.817C206.724,187.874 202.848,194.815 201.111,202.406C200.839,207.944 202.829,212.951 205.465,217.718C208.51,223.223 212.431,228.413 215.531,233.58C230.255,255.715 247.133,276.428 261.149,299.003L261.221,299.123C263.936,303.834 267.233,309.006 271.394,312.969C275.051,316.452 279.393,319.001 284.715,318.971C284.797,318.97 284.88,318.972 284.962,318.976C295.012,319.5 307.6,318.664 313.565,309.458C314.709,307.641 314.536,305.719 314.095,303.824C313.414,300.898 312.069,297.996 311.256,295.266C310.927,294.159 311.059,292.965 311.624,291.956C313.183,289.172 315.686,287.329 318.655,286.001C321.65,284.661 325.23,283.984 327.852,282.398C328.034,282.288 328.224,282.192 328.42,282.11C349.421,273.361 369.638,262.11 392.55,259.269C396.944,258.567 401.681,257.707 405.883,255.917C409.529,254.364 412.771,252.093 414.741,248.352C418.213,241.69 419.29,232.909 414.187,226.812C414.084,226.69 413.989,226.562 413.901,226.429C392.399,193.967 362.56,168.355 336.346,139.896C318.73,120.926 299.588,103.323 283.073,83.4L282.988,83.295C278.034,76.92 276.233,68.81 274.172,60.892C272.503,54.479 270.701,48.164 265.441,43.761C259.557,39.826 252.03,40.18 245.679,42.854C234.781,48.245 222.28,44.839 213.139,37.76C208.84,34.782 204.555,30.772 199.878,27.825C196.064,25.422 191.97,23.726 187.196,24.776C187.112,24.795 187.027,24.811 186.942,24.824C177.47,26.314 167.771,28.541 158.471,25.297C123.54,16.346 87.91,6.241 51.506,8.296C51.433,8.3 51.361,8.303 51.288,8.303C42.626,8.349 35.201,14.64 32.442,22.668C32.41,22.762 32.374,22.855 32.335,22.947C31.152,25.738 30.214,28.505 29.312,31.399Z" style="fill:rgb(39,39,39);fill-opacity:0;stroke:rgb(194,0,0);stroke-width:1.9px;stroke-miterlimit:2;stroke-dasharray:0.86,0.86,0,0,0,0;"/>
        </g>
        <g id="shape" transform="matrix(0.941248,-0.467439,0.469802,0.936514,-17.9833,116.98)">
            <path d="M225.513,82.744C219.7,75.665 211.158,70.945 202.989,67.141C202.928,67.113 202.868,67.083 202.808,67.052C198.979,65.044 194.671,64.806 190.844,67.028L190.778,67.065C144.593,92.803 98.949,119.693 53.541,146.839C53.474,146.879 53.406,146.918 53.337,146.954C50.943,148.213 48.651,150.54 47.49,153.169C46.605,155.172 46.42,157.416 48.022,159.278C51.384,163.143 56.175,165.271 60.72,167.708C66.385,170.746 71.72,174.169 75.049,179.965C80.71,188.27 76.375,199.47 68.11,203.968C61.38,209.25 51.684,209.613 45.025,203.904C32.038,193.665 20.048,181.925 9.832,168.924C-0.666,155.895 -2.023,138.3 0.714,122.415L0.716,122.405C6.01,92.107 12.278,61.913 20.143,32.17L20.177,32.05C20.449,31.129 20.726,30.21 21.01,29.292C21.035,29.179 21.065,29.067 21.1,28.956C22.071,25.839 23.133,22.75 24.399,19.749C28.338,8.47 38.947,-0.135 51.126,-0.251C88.436,-2.336 124.978,7.886 160.777,17.057C160.904,17.089 161.029,17.128 161.153,17.172C169.105,20.01 177.388,17.677 185.477,16.395C192.576,14.872 198.759,17.008 204.439,20.587C209.25,23.618 213.668,27.735 218.091,30.782C218.16,30.83 218.228,30.879 218.294,30.931C224.955,36.123 234.014,39.13 241.965,35.147C242.043,35.108 242.123,35.071 242.203,35.037C251.28,31.166 262.054,31.07 270.43,36.807C270.532,36.877 270.631,36.951 270.726,37.029C277.553,42.63 280.308,50.503 282.452,58.737C284.213,65.504 285.489,72.536 289.708,78C306.112,97.777 325.13,115.244 342.62,134.08L342.631,134.092C369.102,162.831 399.162,188.76 420.907,221.514C428.086,230.287 427.289,242.792 422.323,252.314L422.316,252.327C416.757,262.899 404.579,266.014 393.822,267.73L393.671,267.751C371.607,270.468 352.195,281.448 331.983,289.893C329.517,291.307 326.413,292.169 323.521,293.253C322.296,293.712 321.073,294.155 320.141,294.908C320.937,297.172 321.878,299.524 322.428,301.885C323.386,306.003 323.28,310.128 320.767,314.075L320.751,314.1C313.145,325.866 297.502,328.178 284.651,327.526C277.051,327.536 270.726,324.147 265.494,319.164C260.759,314.655 256.94,308.822 253.841,303.452C239.862,280.948 223.024,260.304 208.35,238.231C208.313,238.175 208.276,238.117 208.242,238.059C205.086,232.785 201.088,227.48 197.979,221.859C194.495,215.56 192.116,208.875 192.592,201.531C192.606,201.314 192.636,201.099 192.683,200.887C194.526,192.519 198.688,184.835 202.474,177.069C205.807,170.232 208.862,163.332 209.022,155.604C207.672,139.092 198.93,124.392 194.215,108.714C194.19,108.629 194.167,108.544 194.147,108.458C193.315,104.911 191.418,100.511 191.12,96.449C190.84,92.633 191.731,89.063 194.703,86.132C195.001,85.838 195.341,85.589 195.712,85.394C200.23,83.013 205.187,82.617 210.249,82.796C214.288,82.938 218.391,83.473 222.259,83.04C223.133,82.885 224.295,82.826 225.513,82.744ZM29.313,31.4L29.282,31.502C28.98,32.472 28.686,33.444 28.398,34.418C20.604,63.904 14.393,93.836 9.145,123.872C6.814,137.402 7.555,152.467 16.499,163.562L16.532,163.605C26.364,176.121 37.901,187.402 50.392,197.241C50.446,197.283 50.498,197.326 50.549,197.37C54.148,200.494 59.439,200.037 63.028,197.077C63.269,196.879 63.53,196.707 63.808,196.566C68.049,194.406 70.856,188.879 67.926,184.706C67.844,184.59 67.769,184.47 67.699,184.346C65.202,179.912 60.968,177.549 56.677,175.247C51.211,172.317 45.599,169.533 41.558,164.882L41.548,164.87C37.549,160.233 37.46,154.701 39.664,149.713C41.574,145.388 45.314,141.541 49.245,139.44C94.686,112.274 140.365,85.366 186.571,59.616C193.007,55.889 200.244,56.081 206.681,59.423C217.478,64.458 228.615,71.159 235.138,81.478C235.554,82.136 235.782,82.895 235.799,83.674L235.556,85.72L234.689,87.641L233.082,89.328L231.786,90.105C231.399,90.29 230.984,90.452 230.547,90.59C228.428,91.256 225.435,91.106 223.8,91.454C223.672,91.482 223.543,91.503 223.413,91.518C219.077,92.032 214.475,91.506 209.947,91.346C206.628,91.229 203.342,91.281 200.336,92.651C199.348,93.976 199.541,95.638 199.85,97.29C200.44,100.435 201.789,103.657 202.446,106.378C207.363,122.652 216.23,137.982 217.568,155.143C217.578,155.274 217.583,155.405 217.581,155.537C217.45,164.621 214.078,172.788 210.164,180.817C206.724,187.874 202.848,194.815 201.111,202.406C200.839,207.944 202.829,212.951 205.465,217.718C208.51,223.223 212.431,228.413 215.531,233.58C230.255,255.715 247.133,276.428 261.149,299.003L261.221,299.123C263.936,303.834 267.233,309.006 271.394,312.969C275.051,316.452 279.393,319.001 284.715,318.971C284.797,318.97 284.88,318.972 284.962,318.976C295.012,319.5 307.6,318.664 313.565,309.458C314.709,307.641 314.536,305.719 314.095,303.824C313.414,300.898 312.069,297.996 311.256,295.266C310.927,294.159 311.059,292.965 311.624,291.956C313.183,289.172 315.686,287.329 318.655,286.001C321.65,284.661 325.23,283.984 327.852,282.398C328.034,282.288 328.224,282.192 328.42,282.11C349.421,273.361 369.638,262.11 392.55,259.269C396.944,258.567 401.681,257.707 405.883,255.917C409.529,254.364 412.771,252.093 414.741,248.352C418.213,241.69 419.29,232.909 414.187,226.812C414.084,226.69 413.989,226.562 413.901,226.429C392.399,193.967 362.56,168.355 336.346,139.896C318.73,120.926 299.588,103.323 283.073,83.4L282.988,83.295C278.034,76.92 276.233,68.81 274.172,60.892C272.503,54.479 270.701,48.164 265.441,43.761C259.557,39.826 252.03,40.18 245.679,42.854C234.781,48.245 222.28,44.839 213.139,37.76C208.84,34.782 204.555,30.772 199.878,27.825C196.064,25.422 191.97,23.726 187.196,24.776C187.112,24.795 187.027,24.811 186.942,24.824C177.47,26.314 167.771,28.541 158.471,25.297C123.54,16.346 87.91,6.241 51.506,8.296C51.433,8.3 51.361,8.303 51.288,8.303C42.626,8.349 35.201,14.64 32.442,22.668C32.41,22.762 32.374,22.855 32.335,22.947C31.152,25.738 30.215,28.507 29.313,31.4Z" style="fill:rgb(39,39,39);stroke:rgb(39,39,39);stroke-width:0.57px;stroke-miterlimit:2;"/>
        </g>
        <g id="white-lines" serif:id="white lines" transform="matrix(0.941248,-0.467439,0.469802,0.936514,-17.9833,116.98)">
            <path d="M225.513,82.744C219.7,75.665 211.158,70.945 202.989,67.141C202.928,67.113 202.868,67.083 202.808,67.052C198.979,65.044 194.671,64.806 190.844,67.028L190.778,67.065C144.593,92.803 98.949,119.693 53.541,146.839C53.474,146.879 53.406,146.918 53.337,146.954C50.943,148.213 48.651,150.54 47.49,153.169C46.605,155.172 46.42,157.416 48.022,159.278C51.384,163.143 56.175,165.271 60.72,167.708C66.385,170.746 71.72,174.169 75.049,179.965C80.71,188.27 76.375,199.47 68.11,203.968C61.38,209.25 51.684,209.613 45.025,203.904C32.038,193.665 20.048,181.925 9.832,168.924C-0.666,155.895 -2.023,138.3 0.714,122.415L0.716,122.405C6.01,92.107 12.278,61.913 20.143,32.17L20.177,32.05C20.449,31.129 20.726,30.21 21.01,29.292C21.035,29.179 21.065,29.067 21.1,28.956C22.071,25.839 23.133,22.75 24.399,19.749C28.338,8.47 38.947,-0.135 51.126,-0.251C88.436,-2.336 124.978,7.886 160.777,17.057C160.904,17.089 161.029,17.128 161.153,17.172C169.105,20.01 177.388,17.677 185.477,16.395C192.576,14.872 198.759,17.008 204.439,20.587C209.25,23.618 213.668,27.735 218.091,30.782C218.16,30.83 218.228,30.879 218.294,30.931C224.955,36.123 234.014,39.13 241.965,35.147C242.043,35.108 242.123,35.071 242.203,35.037C251.28,31.166 262.054,31.07 270.43,36.807C270.532,36.877 270.631,36.951 270.726,37.029C277.553,42.63 280.308,50.503 282.452,58.737C284.213,65.504 285.489,72.536 289.708,78C306.112,97.777 325.13,115.244 342.62,134.08L342.631,134.092C369.102,162.831 399.162,188.76 420.907,221.514C428.086,230.287 427.289,242.792 422.323,252.314L422.316,252.327C416.757,262.899 404.579,266.014 393.822,267.73L393.671,267.751C371.607,270.468 352.195,281.448 331.983,289.893C329.517,291.307 326.413,292.169 323.521,293.253C322.296,293.712 321.073,294.155 320.141,294.908C320.937,297.172 321.878,299.524 322.428,301.885C323.386,306.003 323.28,310.128 320.767,314.075L320.751,314.1C313.145,325.866 297.502,328.178 284.651,327.526C277.051,327.536 270.726,324.147 265.494,319.164C260.759,314.655 256.94,308.822 253.841,303.452C239.862,280.948 223.024,260.304 208.35,238.231C208.313,238.175 208.276,238.117 208.242,238.059C205.086,232.785 201.088,227.48 197.979,221.859C194.495,215.56 192.116,208.875 192.592,201.531C192.606,201.314 192.636,201.099 192.683,200.887C194.526,192.519 198.688,184.835 202.474,177.069C205.807,170.232 208.862,163.332 209.022,155.604C207.672,139.092 198.93,124.392 194.215,108.714C194.19,108.629 194.167,108.544 194.147,108.458C193.315,104.911 191.418,100.511 191.12,96.449C190.84,92.633 191.731,89.063 194.703,86.132C195.001,85.838 195.341,85.589 195.712,85.394C200.23,83.013 205.187,82.617 210.249,82.796C214.288,82.938 218.391,83.473 222.259,83.04C223.133,82.885 224.295,82.826 225.513,82.744ZM29.312,31.399L29.282,31.502C28.98,32.472 28.686,33.444 28.398,34.418C20.604,63.904 14.393,93.836 9.145,123.872C6.814,137.402 7.555,152.467 16.499,163.562L16.532,163.605C26.364,176.121 37.901,187.402 50.392,197.241C50.446,197.283 50.498,197.326 50.549,197.37C54.148,200.494 59.439,200.037 63.028,197.077C63.269,196.879 63.53,196.707 63.808,196.566C68.049,194.406 70.856,188.879 67.926,184.706C67.844,184.59 67.769,184.47 67.699,184.346C65.202,179.912 60.968,177.549 56.677,175.247C51.211,172.317 45.599,169.533 41.558,164.882L41.548,164.87C37.549,160.233 37.46,154.701 39.664,149.713C41.574,145.388 45.314,141.541 49.245,139.44C94.686,112.274 140.365,85.366 186.571,59.616C193.007,55.889 200.244,56.081 206.681,59.423C217.478,64.458 228.615,71.159 235.138,81.478C235.554,82.136 235.782,82.895 235.799,83.674L235.556,85.72L234.689,87.641L233.082,89.328L231.786,90.105C231.399,90.29 230.984,90.452 230.547,90.59C228.428,91.256 225.435,91.106 223.8,91.454C223.672,91.482 223.543,91.503 223.413,91.518C219.077,92.032 214.475,91.506 209.947,91.346C206.628,91.229 203.342,91.281 200.336,92.651C199.348,93.976 199.541,95.638 199.85,97.29C200.44,100.435 201.789,103.657 202.446,106.378C207.363,122.652 216.23,137.982 217.568,155.143C217.578,155.274 217.583,155.405 217.581,155.537C217.45,164.621 214.078,172.788 210.164,180.817C206.724,187.874 202.848,194.815 201.111,202.406C200.839,207.944 202.829,212.951 205.465,217.718C208.51,223.223 212.431,228.413 215.531,233.58C230.255,255.715 247.133,276.428 261.149,299.003L261.221,299.123C263.936,303.834 267.233,309.006 271.394,312.969C275.051,316.452 279.393,319.001 284.715,318.971C284.797,318.97 284.88,318.972 284.962,318.976C295.012,319.5 307.6,318.664 313.565,309.458C314.709,307.641 314.536,305.719 314.095,303.824C313.414,300.898 312.069,297.996 311.256,295.266C310.927,294.159 311.059,292.965 311.624,291.956C313.183,289.172 315.686,287.329 318.655,286.001C321.65,284.661 325.23,283.984 327.852,282.398C328.034,282.288 328.224,282.192 328.42,282.11C349.421,273.361 369.638,262.11 392.55,259.269C396.944,258.567 401.681,257.707 405.883,255.917C409.529,254.364 412.771,252.093 414.741,248.352C418.213,241.69 419.29,232.909 414.187,226.812C414.084,226.69 413.989,226.562 413.901,226.429C392.399,193.967 362.56,168.355 336.346,139.896C318.73,120.926 299.588,103.323 283.073,83.4L282.988,83.295C278.034,76.92 276.233,68.81 274.172,60.892C272.503,54.479 270.701,48.164 265.441,43.761C259.557,39.826 252.03,40.18 245.679,42.854C234.781,48.245 222.28,44.839 213.139,37.76C208.84,34.782 204.555,30.772 199.878,27.825C196.064,25.422 191.97,23.726 187.196,24.776C187.112,24.795 187.027,24.811 186.942,24.824C177.47,26.314 167.771,28.541 158.471,25.297C123.54,16.346 87.91,6.241 51.506,8.296C51.433,8.3 51.361,8.303 51.288,8.303C42.626,8.349 35.201,14.64 32.442,22.668C32.41,22.762 32.374,22.855 32.335,22.947C31.152,25.738 30.214,28.505 29.312,31.399Z" style="fill:rgb(39,39,39);fill-opacity:0;"/>
            <path d="M20.104,32.319C20.117,32.269 20.13,32.219 20.143,32.17L20.177,32.05C20.449,31.129 20.726,30.21 21.01,29.292C21.035,29.179 21.065,29.067 21.1,28.956C22.071,25.839 23.133,22.75 24.399,19.749C28.338,8.47 38.947,-0.135 51.126,-0.251C88.436,-2.336 124.978,7.886 160.777,17.057C160.904,17.089 161.029,17.128 161.153,17.172C169.105,20.01 177.388,17.677 185.477,16.395C192.576,14.872 198.759,17.008 204.439,20.587C209.25,23.618 213.668,27.735 218.091,30.782C218.16,30.83 218.228,30.879 218.294,30.931C224.955,36.123 234.014,39.13 241.965,35.147C242.043,35.108 242.123,35.071 242.203,35.037C251.28,31.166 262.054,31.07 270.43,36.807C270.532,36.877 270.631,36.951 270.726,37.029C277.553,42.63 280.308,50.503 282.452,58.737C284.213,65.504 285.489,72.536 289.708,78C306.112,97.777 325.13,115.244 342.62,134.08L342.631,134.092C369.102,162.831 399.162,188.76 420.907,221.514C428.086,230.287 427.289,242.792 422.323,252.314L422.316,252.327C416.757,262.899 404.579,266.014 393.822,267.73L393.671,267.751C371.607,270.468 352.195,281.448 331.983,289.893C329.517,291.307 326.413,292.169 323.521,293.253C322.296,293.712 321.073,294.155 320.141,294.908C320.937,297.172 321.878,299.524 322.428,301.885C323.386,306.003 323.28,310.128 320.767,314.075L320.751,314.1C313.145,325.866 297.502,328.178 284.651,327.526C277.051,327.536 270.726,324.147 265.494,319.164C260.759,314.655 256.94,308.822 253.841,303.452C239.862,280.948 223.024,260.304 208.35,238.231C208.313,238.175 208.276,238.117 208.242,238.059C205.086,232.785 201.088,227.48 197.979,221.859C194.495,215.56 192.116,208.875 192.592,201.531C192.606,201.314 192.636,201.099 192.683,200.887C194.526,192.519 198.688,184.835 202.474,177.069C205.807,170.232 208.862,163.332 209.022,155.604C207.672,139.092 198.93,124.392 194.215,108.714C194.19,108.629 194.167,108.544 194.147,108.458C193.315,104.911 191.418,100.511 191.12,96.449C190.84,92.633 191.731,89.063 194.703,86.132C195.001,85.838 195.341,85.589 195.712,85.394C200.23,83.013 205.187,82.617 210.249,82.796C214.288,82.938 218.391,83.473 222.259,83.04C223.133,82.885 224.295,82.826 225.513,82.744C219.7,75.665 211.158,70.945 202.989,67.141C202.928,67.113 202.868,67.083 202.808,67.052C198.979,65.044 194.671,64.806 190.844,67.028L190.778,67.065C144.593,92.803 98.949,119.693 53.541,146.839C53.474,146.879 53.406,146.918 53.337,146.954C50.943,148.213 48.651,150.54 47.49,153.169C46.605,155.172 46.42,157.416 48.022,159.278C51.384,163.143 56.175,165.271 60.72,167.708C66.385,170.746 71.72,174.169 75.049,179.965C80.71,188.27 76.375,199.47 68.11,203.968C61.38,209.25 51.684,209.613 45.025,203.904C32.038,193.665 20.048,181.925 9.832,168.924C-0.625,155.946 -2.012,138.439 0.682,122.602C0.722,122.609 0.763,122.603 0.8,122.584C0.854,122.557 0.892,122.506 0.902,122.447C-1.827,138.28 -0.483,155.819 9.98,168.805L9.982,168.807C20.188,181.796 32.167,193.525 45.143,203.754L45.149,203.759C51.738,209.409 61.333,209.046 67.993,203.819L68.019,203.801C76.191,199.354 80.489,188.283 74.892,180.072L74.884,180.06C71.573,174.296 66.264,170.896 60.63,167.875C56.065,165.427 51.255,163.285 47.879,159.402C46.224,157.479 46.402,155.161 47.316,153.092C48.494,150.425 50.819,148.063 53.249,146.786C53.314,146.751 53.379,146.714 53.443,146.676C98.853,119.528 144.499,92.638 190.686,66.899L190.748,66.864C194.634,64.607 199.008,64.845 202.897,66.883C202.954,66.913 203.011,66.942 203.07,66.969C211.264,70.784 219.829,75.523 225.66,82.623C225.705,82.678 225.716,82.754 225.688,82.819C225.659,82.885 225.597,82.929 225.526,82.934C224.316,83.015 223.161,83.073 222.293,83.227L222.281,83.229C218.403,83.663 214.29,83.129 210.242,82.986C205.214,82.808 200.288,83.197 195.8,85.562C195.446,85.749 195.121,85.986 194.836,86.268C191.908,89.155 191.034,92.675 191.309,96.435C191.607,100.487 193.502,104.876 194.332,108.415C194.351,108.497 194.373,108.578 194.397,108.659C199.116,124.35 207.861,139.063 209.212,155.588L209.213,155.607C209.051,163.364 205.99,170.29 202.645,177.152C198.866,184.905 194.709,192.575 192.869,200.928C192.824,201.13 192.795,201.336 192.782,201.543C192.308,208.85 194.679,215.5 198.145,221.767C201.253,227.386 205.251,232.69 208.405,237.962C208.438,238.017 208.473,238.072 208.509,238.126C223.183,260.2 240.022,280.846 254.002,303.351L254.005,303.357C257.096,308.712 260.903,314.53 265.625,319.027C270.822,323.976 277.102,327.346 284.651,327.336L284.661,327.336C297.448,327.985 313.023,325.705 320.591,313.997L320.607,313.973C323.089,310.073 323.19,305.997 322.243,301.928C321.695,299.574 320.756,297.229 319.961,294.971C319.935,294.895 319.959,294.811 320.021,294.76C320.968,293.995 322.209,293.541 323.455,293.075C326.337,291.995 329.431,291.137 331.889,289.728L331.91,289.718C352.137,281.266 371.566,270.281 393.648,267.562L393.792,267.542C404.492,265.835 416.618,262.755 422.148,252.239L422.155,252.227C427.087,242.768 427.89,230.348 420.76,221.634L420.749,221.619C399.01,188.874 368.956,162.952 342.492,134.221C342.5,134.229 342.509,134.235 342.515,134.239C342.517,134.24 342.519,134.241 342.521,134.242L342.48,134.209C324.988,115.371 305.968,97.901 289.562,78.121L289.558,78.116C285.323,72.632 284.035,65.577 282.268,58.785C280.135,50.59 277.4,42.75 270.605,37.176C270.514,37.101 270.42,37.031 270.323,36.964C262,31.264 251.296,31.366 242.278,35.211C242.201,35.244 242.125,35.279 242.05,35.317C234.033,39.333 224.895,36.317 218.177,31.081C218.114,31.032 218.049,30.984 217.983,30.939C213.562,27.893 209.147,23.778 204.337,20.747C198.7,17.196 192.563,15.069 185.517,16.581L185.507,16.583C177.386,17.87 169.072,20.2 161.089,17.351C160.971,17.309 160.851,17.272 160.729,17.241C124.949,8.075 88.427,-2.145 51.136,-0.061L51.128,-0.061C39.029,0.054 28.491,8.607 24.579,19.812L24.575,19.823C23.311,22.818 22.251,25.902 21.281,29.012C21.248,29.119 21.22,29.226 21.195,29.334L21.191,29.348C20.908,30.265 20.631,31.184 20.359,32.104L20.327,32.218L20.104,32.319ZM0.691,122.554C0.698,122.507 0.706,122.461 0.714,122.415L0.716,122.405C5.999,92.169 12.252,62.038 20.095,32.353C20.137,32.364 20.182,32.361 20.222,32.343C20.274,32.319 20.313,32.273 20.327,32.218C12.463,61.957 6.196,92.145 0.903,122.438L0.902,122.447L0.691,122.554ZM41.702,164.758C45.727,169.391 51.321,172.16 56.767,175.08C61.09,177.398 65.35,179.786 67.865,184.253C67.931,184.371 68.003,184.486 68.081,184.597C71.078,188.864 68.232,194.527 63.895,196.735C63.629,196.871 63.379,197.034 63.149,197.224C59.489,200.242 54.095,200.699 50.424,197.514C50.376,197.471 50.326,197.43 50.275,197.39C37.771,187.542 26.224,176.25 16.383,163.722L16.351,163.682C7.372,152.543 6.617,137.422 8.957,123.839C14.207,93.798 20.418,63.861 28.215,34.369L28.216,34.364C28.504,33.389 28.798,32.417 29.1,31.446L29.129,31.348L29.227,31.569L29.131,31.342C30.034,28.443 30.974,25.669 32.16,22.873C32.197,22.785 32.232,22.696 32.263,22.606C35.047,14.504 42.545,8.159 51.287,8.113C51.356,8.112 51.426,8.11 51.495,8.106C87.918,6.05 123.569,16.157 158.518,25.113L158.533,25.118C167.804,28.351 177.471,26.122 186.912,24.637C186.994,24.624 187.075,24.608 187.156,24.591C191.982,23.528 196.123,25.234 199.979,27.664C204.659,30.612 208.946,34.624 213.247,37.603L213.256,37.609C222.34,44.645 234.764,48.041 245.595,42.684L245.606,42.679C252.014,39.981 259.609,39.632 265.547,43.603L265.563,43.615C270.854,48.045 272.677,54.392 274.356,60.844C276.411,68.737 278.2,76.824 283.139,83.179L283.219,83.279L283.098,83.431C283.09,83.421 283.081,83.411 283.073,83.4L282.988,83.295C278.034,76.92 276.233,68.81 274.172,60.892C272.503,54.479 270.701,48.164 265.441,43.761C259.557,39.826 252.03,40.18 245.679,42.854C234.781,48.245 222.28,44.839 213.139,37.76C208.84,34.782 204.555,30.772 199.878,27.825C196.064,25.422 191.97,23.726 187.196,24.776C187.112,24.795 187.027,24.811 186.942,24.824C177.47,26.314 167.771,28.541 158.471,25.297C123.54,16.346 87.91,6.241 51.506,8.296C51.433,8.3 51.361,8.303 51.288,8.303C42.626,8.349 35.201,14.64 32.442,22.668C32.41,22.762 32.374,22.855 32.335,22.947C31.152,25.738 30.214,28.505 29.312,31.399L29.282,31.502C29.266,31.553 29.25,31.604 29.234,31.656C28.949,32.575 28.671,33.496 28.398,34.418C20.604,63.904 14.393,93.836 9.145,123.872C6.814,137.402 7.555,152.467 16.499,163.562L16.532,163.605C26.364,176.121 37.901,187.402 50.392,197.241C50.446,197.283 50.498,197.326 50.549,197.37C54.148,200.494 59.439,200.037 63.028,197.077C63.269,196.879 63.53,196.707 63.808,196.566C68.049,194.406 70.856,188.879 67.926,184.706C67.844,184.59 67.769,184.47 67.699,184.346C65.202,179.912 60.968,177.549 56.677,175.247C51.267,172.347 45.714,169.591 41.684,165.025C41.693,165.017 41.701,165.009 41.709,164.999C41.764,164.927 41.761,164.826 41.702,164.758ZM283.219,83.279C299.732,103.199 318.872,120.8 336.485,139.767C362.706,168.233 392.552,193.854 414.059,226.324C414.143,226.451 414.235,226.573 414.332,226.69C419.485,232.847 418.415,241.713 414.909,248.44C412.918,252.222 409.643,254.522 405.958,256.092C401.742,257.888 396.989,258.752 392.58,259.457L392.574,259.458C369.679,262.297 349.479,273.543 328.493,282.285C328.306,282.363 328.124,282.456 327.95,282.561C325.322,284.15 321.734,284.832 318.732,286.175C315.802,287.486 313.329,289.301 311.79,292.049C311.25,293.013 311.124,294.154 311.439,295.212C312.252,297.945 313.598,300.852 314.28,303.781C314.733,305.724 314.899,307.696 313.725,309.559L313.724,309.561C310.715,314.207 306.037,316.744 300.842,318.05C295.675,319.349 289.995,319.429 284.952,319.166C284.874,319.162 284.795,319.16 284.716,319.161C279.343,319.192 274.956,316.623 271.263,313.107C267.088,309.131 263.78,303.944 261.056,299.218L260.987,299.103C246.973,276.531 230.095,255.819 215.373,233.685L215.368,233.678C212.266,228.509 208.344,223.317 205.299,217.81C202.645,213.012 200.647,207.971 200.921,202.397C200.921,202.386 200.923,202.375 200.925,202.364C202.666,194.759 206.547,187.804 209.993,180.734C213.895,172.73 217.26,164.59 217.391,155.534C217.392,155.408 217.388,155.283 217.379,155.157C216.041,138.01 207.177,122.694 202.264,106.433L202.262,106.423C201.603,103.699 200.254,100.474 199.664,97.325C199.344,95.619 199.163,93.905 200.184,92.537C200.203,92.512 200.228,92.491 200.257,92.478C203.29,91.096 206.605,91.038 209.954,91.156C214.472,91.315 219.064,91.842 223.39,91.33C223.515,91.315 223.638,91.294 223.761,91.268C225.391,90.921 228.376,91.073 230.49,90.408C230.916,90.274 231.319,90.117 231.696,89.937L232.962,89.178L234.529,87.534L235.371,85.669L235.608,83.661C235.59,82.923 235.372,82.204 234.977,81.579C228.474,71.291 217.365,64.615 206.601,59.596L206.594,59.592C200.215,56.28 193.044,56.088 186.666,59.781L186.663,59.782C140.46,85.531 94.782,112.438 49.342,139.604L49.334,139.608C45.438,141.69 41.731,145.503 39.838,149.789C37.664,154.712 37.746,160.171 41.692,164.746L41.702,164.758L41.583,164.911C41.575,164.901 41.548,164.87 41.548,164.87C37.549,160.233 37.46,154.701 39.664,149.713C41.574,145.388 45.314,141.541 49.245,139.44C94.686,112.274 140.365,85.366 186.571,59.616C193.007,55.889 200.244,56.081 206.681,59.423C217.478,64.458 228.615,71.159 235.138,81.478C235.554,82.136 235.782,82.895 235.799,83.674L235.556,85.72L234.689,87.641L233.082,89.328L231.786,90.105C231.399,90.29 230.984,90.452 230.547,90.59C228.428,91.256 225.435,91.106 223.8,91.454C223.672,91.482 223.543,91.503 223.413,91.518C219.077,92.032 214.475,91.506 209.947,91.346C206.628,91.229 203.342,91.281 200.336,92.651C199.348,93.976 199.541,95.638 199.85,97.29C200.44,100.435 201.789,103.657 202.446,106.378C207.363,122.652 216.23,137.982 217.568,155.143C217.578,155.274 217.583,155.405 217.581,155.537C217.45,164.621 214.078,172.788 210.164,180.817C206.724,187.874 202.848,194.815 201.111,202.406C200.839,207.944 202.829,212.951 205.465,217.718C208.51,223.223 212.431,228.413 215.531,233.58C230.255,255.715 247.133,276.428 261.149,299.003L261.221,299.123C261.23,299.139 261.239,299.154 261.248,299.17L261.136,299.293L261.249,299.173C263.959,303.871 267.247,309.02 271.394,312.969C275.051,316.452 279.393,319.001 284.715,318.971C284.797,318.97 284.88,318.972 284.962,318.976C295.012,319.5 307.6,318.664 313.565,309.458C314.709,307.641 314.536,305.719 314.095,303.824C313.414,300.898 312.069,297.996 311.256,295.266C310.927,294.159 311.059,292.965 311.624,291.956C313.183,289.172 315.686,287.329 318.655,286.001C321.65,284.661 325.23,283.984 327.852,282.398C328.034,282.288 328.224,282.192 328.42,282.11C349.421,273.361 369.638,262.11 392.55,259.269C396.944,258.567 401.681,257.707 405.883,255.917C409.529,254.364 412.771,252.093 414.741,248.352C418.213,241.69 419.29,232.909 414.187,226.812C414.084,226.69 413.989,226.562 413.901,226.429C392.399,193.967 362.56,168.355 336.346,139.896C318.774,120.973 299.682,103.41 283.194,83.547C283.204,83.539 283.213,83.529 283.222,83.519C283.278,83.448 283.276,83.348 283.219,83.279Z" style="fill:rgb(250,250,250);"/>
        </g>
    </g>
</svg>
