<?xml version="1.0" encoding="UTF-8" standalone="no"?>
<!DOCTYPE svg PUBLIC "-//W3C//DTD SVG 1.1//EN" "http://www.w3.org/Graphics/SVG/1.1/DTD/svg11.dtd">
<svg width="100%" height="100%" viewBox="0 0 500 500" version="1.1" xmlns="http://www.w3.org/2000/svg" xmlns:xlink="http://www.w3.org/1999/xlink" xml:space="preserve" xmlns:serif="http://www.serif.com/" style="fill-rule:evenodd;clip-rule:evenodd;stroke-linejoin:round;stroke-miterlimit:2;">
    <g id="Car" transform="matrix(6.12323e-17,1,-1,6.12323e-17,430.038,-3.8147e-06)">
        <path d="M449.999,139.837L447.304,178.223C447.212,179.533 447.212,180.848 447.304,182.158L449.999,220.543L409.716,220.543L407.374,185.096C407.158,181.829 407.158,178.551 407.374,175.284L409.716,139.837L449.999,139.837Z" style="fill:rgb(238,135,46);fill-rule:nonzero;"/>
        <path d="M407.374,175.284C407.158,178.551 407.158,181.829 407.374,185.096L409.716,220.543L420.571,220.543L418.229,185.096C418.013,181.829 418.013,178.551 418.229,175.284L420.571,139.837L409.716,139.837L407.374,175.284Z" style="fill:rgb(224,117,25);fill-rule:nonzero;"/>
        <path d="M449.999,220.543L420.571,220.543L420.414,218.167C422.414,218.489 424.466,218.657 426.557,218.657C435.086,218.657 442.964,215.877 449.342,211.179L449.423,212.34L449.999,220.543Z" style="fill:rgb(173,88,14);fill-rule:nonzero;"/>
        <path d="M420.571,220.543L409.716,220.543L409.322,214.578C412.758,216.304 416.486,217.533 420.414,218.167L420.571,220.543Z" style="fill:rgb(173,88,14);fill-rule:nonzero;"/>
        <path d="M449.342,149.201C442.964,144.503 435.086,141.723 426.557,141.723C424.466,141.723 422.414,141.891 420.414,142.213L420.571,139.837L449.999,139.837L449.423,148.04L449.342,149.201Z" style="fill:rgb(173,88,14);fill-rule:nonzero;"/>
        <path d="M409.322,145.802L409.716,139.837L420.571,139.837L420.414,142.213C416.486,142.847 412.758,144.076 409.322,145.802Z" style="fill:rgb(173,88,14);fill-rule:nonzero;"/>
        <path d="M461.915,220.114C461.915,219.459 461.383,218.927 460.728,218.927L409.613,218.927C408.957,218.927 408.426,219.459 408.426,220.114L408.426,224.699C408.426,225.397 409.024,225.943 409.719,225.881L460.834,221.296C461.446,221.241 461.915,220.728 461.915,220.114Z" style="fill:rgb(15,21,21);fill-rule:nonzero;"/>
        <path d="M461.915,140.266C461.915,140.922 461.383,141.453 460.728,141.453L409.613,141.453C408.957,141.453 408.426,140.922 408.426,140.266L408.426,135.681C408.426,134.984 409.024,134.437 409.719,134.499L460.834,139.084C461.446,139.139 461.915,139.652 461.915,140.266Z" style="fill:rgb(15,21,21);fill-rule:nonzero;"/>
    </g>
</svg>
