<?xml version="1.0" encoding="UTF-8" standalone="no"?>
<!DOCTYPE svg PUBLIC "-//W3C//DTD SVG 1.1//EN" "http://www.w3.org/Graphics/SVG/1.1/DTD/svg11.dtd">
<svg width="100%" height="100%" viewBox="0 0 500 500" version="1.1" xmlns="http://www.w3.org/2000/svg" xmlns:xlink="http://www.w3.org/1999/xlink" xml:space="preserve" xmlns:serif="http://www.serif.com/" style="fill-rule:evenodd;clip-rule:evenodd;stroke-linejoin:round;stroke-miterlimit:2;">
    <g id="Car" transform="matrix(6.12323e-17,1,-1,6.12323e-17,430.038,-3.8147e-06)">
        <rect x="398.244" y="128.543" width="8.341" height="102.433" style="fill:rgb(56,56,56);"/>
        <path d="M409.64,143.76L409.64,215.598C409.64,217.646 407.98,219.307 405.931,219.307L398.792,219.307C396.744,219.307 395.084,217.646 395.084,215.598L395.084,143.76C395.084,141.712 396.744,140.051 398.792,140.051L405.931,140.051C407.98,140.051 409.64,141.712 409.64,143.76Z" style="fill:rgb(35,35,35);fill-rule:nonzero;"/>
        <rect x="225.443" y="204.154" width="19.181" height="33.795" style="fill:rgb(183,31,36);"/>
        <rect x="225.443" y="123.776" width="19.181" height="33.795" style="fill:rgb(183,31,36);"/>
        <path d="M229.249,209.663L229.249,212.65C229.249,216.197 226.374,219.073 222.827,219.073L222.275,219.073C218.728,219.073 215.853,216.197 215.853,212.65L215.853,209.663C215.853,206.116 218.728,203.24 222.275,203.24L222.827,203.24C226.374,203.24 229.249,206.116 229.249,209.663Z" style="fill:rgb(183,31,36);fill-rule:nonzero;"/>
        <path d="M229.249,150.597L229.249,153.585C229.249,157.132 226.374,160.007 222.827,160.007L222.275,160.007C218.728,160.007 215.853,157.132 215.853,153.585L215.853,150.597C215.853,147.05 218.728,144.175 222.275,144.175L222.827,144.175C226.374,144.175 229.249,147.05 229.249,150.597Z" style="fill:rgb(183,31,36);fill-rule:nonzero;"/>
        <path d="M219.07,221.119C214.979,224.003 214.344,231.305 214.348,235.59C214.349,237.397 215.803,238.863 217.611,238.863L224.609,238.863C226.411,238.863 227.871,237.402 227.871,235.601L227.871,207.721C227.871,205.919 226.411,204.459 224.609,204.459L223.676,204.459C221.875,204.459 220.414,205.919 220.414,207.721L220.414,218.489C220.414,219.531 219.922,220.519 219.07,221.119Z" style="fill:rgb(213,31,38);fill-rule:nonzero;"/>
        <path d="M218.613,139.108C214.522,136.225 213.887,128.922 213.89,124.638C213.892,122.83 215.346,121.365 217.154,121.365L224.152,121.365C225.954,121.365 227.414,122.825 227.414,124.627L227.414,152.507C227.414,154.308 225.954,155.769 224.152,155.769L223.219,155.769C221.418,155.769 219.957,154.308 219.957,152.507L219.957,141.739C219.957,140.697 219.465,139.709 218.613,139.108Z" style="fill:rgb(213,31,38);fill-rule:nonzero;"/>
        <path d="M253.777,119.86L251.147,121.172L251.147,238.347L253.777,239.659C262.501,244.012 272.307,246.295 282.276,246.295L369.91,246.295L369.91,113.224L282.276,113.224C272.307,113.224 262.501,115.507 253.777,119.86Z" style="fill:rgb(35,35,35);fill-rule:nonzero;"/>
        <path d="M369.91,233.938L282.276,233.938C272.307,233.938 262.501,232.079 253.777,228.535L251.147,227.466L251.147,132.053L253.777,130.985C262.501,127.44 272.307,125.581 282.276,125.581L369.91,125.581L369.91,233.938Z" style="fill:rgb(28,28,28);fill-rule:nonzero;"/>
        <path d="M253.777,235.151L251.147,233.938L251.147,238.347L253.777,239.659C262.501,244.012 272.307,246.295 282.276,246.295L369.91,246.295L369.91,241.288L282.276,241.288C272.307,241.288 262.501,239.176 253.777,235.151Z" style="fill:rgb(13,19,21);fill-rule:nonzero;"/>
        <path d="M253.777,119.86L251.147,121.172L251.147,125.581L253.777,124.368C262.501,120.343 272.307,118.232 282.276,118.232L369.91,118.232L369.91,113.224L282.276,113.224C272.307,113.224 262.501,115.507 253.777,119.86Z" style="fill:rgb(13,19,21);fill-rule:nonzero;"/>
        <path d="M216.085,154.679C205.741,154.679 201.865,159.755 196.367,160.797L196.367,199.186C201.865,200.228 205.741,205.701 216.085,205.701C238.397,205.701 218.529,246.067 267.481,237.933C304.529,231.776 413.777,204.749 413.777,204.749C420.209,203.29 424.742,197.87 424.742,191.638L424.742,168.742C424.742,162.51 420.209,157.09 413.777,155.631C413.777,155.631 304.529,128.604 267.481,122.447C218.529,114.313 238.397,154.679 216.085,154.679Z" style="fill:rgb(229,30,37);fill-rule:nonzero;"/>
        <path d="M256.193,134.494L232.254,134.494C227.885,143.814 227.661,154.679 216.085,154.679C205.741,154.679 201.865,159.755 196.367,160.797L196.367,199.186C201.865,200.228 205.741,205.701 216.085,205.701C227.496,205.701 227.876,216.26 232.071,225.489L256.707,225.489C280.735,225.489 304.692,221.434 328.164,213.396L424.742,180.32L328.642,146.929C304.855,138.664 280.56,134.494 256.193,134.494Z" style="fill:rgb(188,32,37);fill-rule:nonzero;"/>
        <path d="M57.874,250.075C57.874,251.618 59.124,252.868 60.667,252.868L101.018,252.868C102.56,252.868 103.81,251.618 103.81,250.075C103.81,248.533 102.56,247.283 101.018,247.283L60.667,247.283C59.124,247.283 57.874,248.533 57.874,250.075Z" style="fill:rgb(3,4,4);fill-rule:nonzero;"/>
        <path d="M57.874,109.775C57.874,111.318 59.124,112.568 60.667,112.568L101.018,112.568C102.56,112.568 103.81,111.318 103.81,109.775C103.81,108.233 102.56,106.983 101.018,106.983L60.667,106.983C59.124,106.983 57.874,108.233 57.874,109.775Z" style="fill:rgb(3,4,4);fill-rule:nonzero;"/>
        <rect x="55.096" y="119.907" width="22.835" height="120.567" style="fill:rgb(183,31,36);"/>
        <path d="M118.493,161.798L118.493,199.878C118.493,201.427 117.237,202.683 115.688,202.683L101.592,202.683C100.043,202.683 98.786,201.427 98.786,199.878L98.786,161.798C98.786,160.249 100.043,158.993 101.592,158.993L115.688,158.993C117.237,158.993 118.493,160.249 118.493,161.798Z" style="fill:rgb(35,35,35);fill-rule:nonzero;"/>
        <path d="M142.71,130.817L164.438,180.838L142.844,230.55L135.345,230.55L156.94,180.838L135.211,130.817L142.71,130.817Z" style="fill:rgb(9,10,10);fill-rule:nonzero;"/>
        <path d="M143.503,130.832L178.937,180.838L144.343,230.559L136.845,230.559L171.439,180.838L136.005,130.832L143.503,130.832Z" style="fill:rgb(35,35,35);fill-rule:nonzero;"/>
        <rect x="136.243" y="130.783" width="8.341" height="99.725" style="fill:rgb(56,56,56);"/>
        <path d="M147.639,150.689L147.639,209.294C147.639,211.342 145.979,213.002 143.931,213.002L136.792,213.002C134.743,213.002 133.083,211.342 133.083,209.294L133.083,150.689C133.083,148.641 134.743,146.981 136.792,146.981L143.931,146.981C145.979,146.981 147.639,148.641 147.639,150.689Z" style="fill:rgb(35,35,35);fill-rule:nonzero;"/>
        <path d="M209.954,160.007L209.954,199.976L48.06,190.564C42.46,190.238 38.085,185.601 38.085,179.991C38.085,174.381 42.46,169.745 48.06,169.419L209.954,160.007Z" style="fill:rgb(188,32,37);fill-rule:nonzero;"/>
        <path d="M209.954,161.509L209.954,198.474L48.06,189.769C42.46,189.468 38.085,185.18 38.085,179.991C38.085,174.803 42.46,170.515 48.06,170.214L209.954,161.509Z" style="fill:rgb(229,30,37);fill-rule:nonzero;"/>
        <rect x="55.096" y="115.307" width="4.159" height="4.6" style="fill:url(#_Radial1);"/>
        <path d="M77.931,161.509L77.931,119.907L59.255,119.907L59.255,115.307L77.931,115.307L77.931,161.509Z" style="fill:rgb(122,122,126);fill-rule:nonzero;"/>
        <path d="M77.931,161.509L72.049,161.509C71.199,161.509 70.531,160.783 70.6,159.936L73.11,129.36C73.217,128.062 72.169,127.095 71.023,127.095C70.647,127.095 70.262,127.199 69.902,127.428L69.868,127.45C67.644,128.874 65.221,129.959 62.678,130.671L55.096,132.794L55.096,119.907L77.931,119.907L77.931,161.509Z" style="fill:rgb(146,25,28);fill-rule:nonzero;"/>
        <path d="M77.931,159.917C77.931,159.917 85.463,155.457 85.463,146.519C85.463,140.101 87.21,136.886 90.219,133.651C93.234,130.411 94.909,126.149 94.909,121.723L94.909,116.074L76.028,116.074L72.298,159.917L77.931,159.917Z" style="fill:white;fill-rule:nonzero;"/>
        <path d="M103.81,117.298L103.81,117.08C103.81,113.046 100.54,109.775 96.505,109.775L55.096,109.775L55.096,130.783L62.678,128.66C65.221,127.948 67.644,126.863 69.868,125.439C75.101,122.09 81.28,120.53 87.476,120.993L90.844,121.245C93.056,121.411 95.275,121.032 97.307,120.143L103.81,117.298Z" style="fill:rgb(35,35,35);fill-rule:nonzero;"/>
        <rect x="55.096" y="240.474" width="4.159" height="4.599" style="fill:url(#_Radial2);"/>
        <path d="M77.931,245.073L59.255,245.073L59.255,240.474L77.931,240.474L77.931,198.871L77.931,245.073Z" style="fill:rgb(122,122,126);fill-rule:nonzero;"/>
        <path d="M77.931,240.474L55.096,240.474L55.096,227.586L62.678,229.709C65.221,230.421 67.644,231.506 69.868,232.93L69.902,232.952C70.262,233.181 70.647,233.285 71.023,233.285C72.169,233.285 73.217,232.318 73.11,231.02L70.6,200.444C70.531,199.597 71.199,198.871 72.049,198.871L77.931,198.871L77.931,240.474Z" style="fill:rgb(146,25,28);fill-rule:nonzero;"/>
        <path d="M77.931,200.464C77.931,200.464 85.463,204.923 85.463,213.861C85.463,220.279 87.21,223.494 90.219,226.729C93.234,229.97 94.909,234.231 94.909,238.657L94.909,244.306L76.028,244.306L72.298,200.464L77.931,200.464Z" style="fill:white;fill-rule:nonzero;"/>
        <path d="M103.81,243.082C103.81,247.237 100.442,250.605 96.287,250.605L55.096,250.605L55.096,229.597L62.678,231.72C65.221,232.432 67.644,233.517 69.868,234.941C75.101,238.29 81.28,239.85 87.476,239.387L90.844,239.135C93.056,238.969 95.275,239.348 97.307,240.237L103.81,243.082Z" style="fill:rgb(35,35,35);fill-rule:nonzero;"/>
        <path d="M75.984,188.484C80.711,188.484 84.543,184.652 84.543,179.925C84.543,175.199 80.711,171.367 75.984,171.367C73.644,171.367 71.526,172.309 69.982,173.83L67.748,173.83L67.748,186.052L70.014,186.052C71.556,187.555 73.66,188.484 75.984,188.484Z" style="fill:rgb(251,169,24);fill-rule:nonzero;"/>
        <path d="M412.556,153.33L412.556,206.189L380.3,206.189C376.915,206.189 374.171,203.446 374.171,200.061L374.171,159.458C374.171,156.074 376.915,153.33 380.3,153.33L412.556,153.33Z" style="fill:rgb(51,51,51);fill-rule:nonzero;"/>
        <path d="M391.516,138.47L385.292,158.408C384.93,159.478 385.44,160.753 386.23,160.753L388.968,160.753C389.363,160.753 389.725,160.417 389.906,159.882L396.628,138.47L391.516,138.47Z" style="fill:rgb(25,25,25);fill-rule:nonzero;"/>
        <path d="M402.669,138.47L394.526,162.552C394.225,163.442 394.649,164.503 395.307,164.503L397.585,164.503C397.913,164.503 398.214,164.223 398.365,163.778L406.922,138.47L402.669,138.47Z" style="fill:rgb(25,25,25);fill-rule:nonzero;"/>
        <path d="M391.516,221.605L385.292,201.668C384.93,200.597 385.44,199.323 386.23,199.323L388.968,199.323C389.363,199.323 389.725,199.659 389.906,200.194L396.628,221.605L391.516,221.605Z" style="fill:rgb(25,25,25);fill-rule:nonzero;"/>
        <path d="M402.669,221.605L394.526,197.524C394.225,196.633 394.649,195.573 395.307,195.573L397.585,195.573C397.913,195.573 398.214,195.853 398.365,196.298L406.922,221.605L402.669,221.605Z" style="fill:rgb(25,25,25);fill-rule:nonzero;"/>
        <path d="M227.226,213.002L256.707,213.002C280.735,213.002 304.692,210.061 328.164,204.228L424.591,180.268L423.795,179.991L328.642,156.003C304.855,150.006 280.56,146.981 256.193,146.981L227.413,146.981C225.339,151.438 222.404,154.679 216.085,154.679C205.741,154.679 201.865,161.197 196.367,162.239L196.367,197.744C201.865,198.785 205.741,205.701 216.085,205.701C222.215,205.701 225.161,208.751 227.226,213.002Z" style="fill:rgb(230,230,230);fill-rule:nonzero;"/>
        <path d="M256.193,152.59L223.22,152.59C221.453,153.902 219.175,154.679 216.085,154.679C205.741,154.679 201.865,161.197 196.367,162.239L196.367,197.744C201.865,198.785 205.741,205.701 216.085,205.701C218.849,205.701 220.965,206.323 222.646,207.393L256.707,207.393C280.735,207.393 304.692,204.951 328.164,200.11L424.742,180.19L328.642,160.079C304.855,155.101 280.56,152.59 256.193,152.59Z" style="fill:rgb(229,30,37);fill-rule:nonzero;"/>
        <path d="M256.193,170.519L223.22,170.519C221.453,170.972 219.175,171.241 216.085,171.241C205.741,171.241 201.865,173.494 196.367,173.855L196.367,186.128C201.865,186.488 205.741,188.879 216.085,188.879C218.849,188.879 220.965,189.094 222.646,189.464L256.707,189.464C280.735,189.464 304.692,188.62 328.164,186.946L424.742,180.06L328.642,173.108C304.855,171.387 280.56,170.519 256.193,170.519Z" style="fill:rgb(188,32,37);fill-rule:nonzero;"/>
        <path d="M407.437,168.069L423.004,147.238C423.793,146.182 423.039,144.677 421.721,144.677L414.476,144.677C413.971,144.677 413.495,144.916 413.193,145.32L396.276,167.958C395.487,169.014 396.241,170.519 397.559,170.519L402.548,170.519C404.473,170.519 406.285,169.611 407.437,168.069Z" style="fill:rgb(13,19,21);fill-rule:nonzero;"/>
        <path d="M407.437,191.289L423.004,212.12C423.793,213.176 423.039,214.681 421.721,214.681L414.476,214.681C413.971,214.681 413.495,214.443 413.193,214.038L396.276,191.4C395.487,190.344 396.241,188.839 397.559,188.839L402.548,188.839C404.473,188.839 406.285,189.747 407.437,191.289Z" style="fill:rgb(13,19,21);fill-rule:nonzero;"/>
        <path d="M449.423,212.34L449.342,211.179L449.423,212.34Z" style="fill:rgb(137,138,142);fill-rule:nonzero;"/>
        <path d="M259.269,178.383L259.269,180.975C259.269,189.19 252.609,195.85 244.394,195.85L201.685,195.85C198.302,195.85 195.56,193.108 195.56,189.725L195.56,169.633C195.56,166.25 198.302,163.508 201.685,163.508L244.394,163.508C252.609,163.508 259.269,170.168 259.269,178.383Z" style="fill:rgb(13,19,21);fill-rule:nonzero;"/>
        <path d="M259.269,178.383L259.269,180.975C259.269,189.19 252.609,195.85 244.394,195.85L201.685,195.85C198.302,195.85 195.56,193.108 195.56,189.725L195.56,169.633C195.56,166.25 198.302,163.508 201.685,163.508L244.394,163.508C252.609,163.508 259.269,170.168 259.269,178.383Z" style="fill:rgb(35,35,35);fill-rule:nonzero;"/>
        <path d="M289.418,179.855L289.418,180.128C289.418,181.881 287.997,183.302 286.244,183.302L266.561,183.302C264.808,183.302 263.387,181.881 263.387,180.128L263.387,179.855C263.387,178.102 264.808,176.68 266.561,176.68L286.244,176.68C287.997,176.68 289.418,178.102 289.418,179.855Z" style="fill:rgb(13,19,21);fill-rule:nonzero;"/>
        <path d="M266.698,170.927L266.698,189.055C266.698,191.81 268.931,194.043 271.685,194.043L281.044,194.043C283.798,194.043 286.031,191.81 286.031,189.055L286.031,170.927C286.031,168.173 283.798,165.94 281.044,165.94L271.685,165.94C268.931,165.94 266.698,168.173 266.698,170.927Z" style="fill:rgb(35,35,35);fill-rule:nonzero;"/>
        <path d="M189.973,195.898L189.973,203.628L178.188,200.318C177.055,200 176.272,198.967 176.272,197.791C176.272,196.272 177.557,195.07 179.072,195.171L189.973,195.898Z" style="fill:rgb(188,32,37);fill-rule:nonzero;"/>
        <path d="M191.305,195.649L191.305,203.982C191.305,204.334 191.019,204.62 190.667,204.62L190.612,204.62C190.259,204.62 189.973,204.334 189.973,203.982L189.973,195.649C189.973,195.296 190.259,195.01 190.612,195.01L190.667,195.01C191.019,195.01 191.305,195.296 191.305,195.649Z" style="fill:rgb(35,35,35);fill-rule:nonzero;"/>
        <path d="M189.973,165.425L189.973,157.695L178.188,161.006C177.055,161.324 176.272,162.357 176.272,163.533C176.272,165.052 177.557,166.253 179.072,166.152L189.973,165.425Z" style="fill:rgb(188,32,37);fill-rule:nonzero;"/>
        <path d="M191.305,165.675L191.305,157.342C191.305,156.99 191.019,156.704 190.667,156.704L190.612,156.704C190.259,156.704 189.973,156.99 189.973,157.342L189.973,165.675C189.973,166.028 190.259,166.313 190.612,166.313L190.667,166.313C191.019,166.313 191.305,166.028 191.305,165.675Z" style="fill:rgb(35,35,35);fill-rule:nonzero;"/>
        <path d="M197.109,165.245C196.151,166.249 195.56,167.606 195.56,169.103L195.56,190.256C195.56,191.753 196.151,193.109 197.109,194.113L197.109,165.245Z" style="fill:rgb(3,4,4);fill-rule:nonzero;"/>
        <rect x="195.882" y="177.453" width="5.309" height="4.452" style="fill:rgb(3,4,4);"/>
        <path d="M245.682,163.508L215.846,163.508C213.692,164.423 212.18,166.557 212.18,169.046L212.18,190.275C212.18,192.801 213.74,194.96 215.947,195.85L245.682,195.85C253.186,195.85 259.269,189.767 259.269,182.263L259.269,177.095C259.269,169.591 253.186,163.508 245.682,163.508Z" style="fill:rgb(3,4,4);fill-rule:nonzero;"/>
        <path d="M252.953,193.728C254.421,192.795 255.695,191.59 256.708,190.181L230.759,183.834L229.728,188.048L252.953,193.728Z" style="fill:rgb(191,190,190);fill-rule:nonzero;"/>
        <path d="M252.618,188.585L251.313,193.922L236.707,190.35L238.012,185.013L252.618,188.585Z" style="fill:white;fill-rule:nonzero;"/>
        <path d="M233.869,184L232.563,189.336L219.502,186.142L220.807,180.805L233.869,184Z" style="fill:rgb(35,35,35);fill-rule:nonzero;"/>
        <path d="M233.554,185.287L232.878,188.049L219.817,184.855L220.492,182.092L233.554,185.287Z" style="fill:rgb(191,190,190);fill-rule:nonzero;"/>
        <path d="M252.287,165.226L229.305,170.847L230.336,175.06L256.35,168.698C255.24,167.29 253.862,166.105 252.287,165.226Z" style="fill:rgb(191,190,190);fill-rule:nonzero;"/>
        <path d="M252.195,170.309L250.89,164.972L236.284,168.545L237.589,173.882L252.195,170.309Z" style="fill:white;fill-rule:nonzero;"/>
        <path d="M233.446,174.895L232.141,169.558L219.079,172.752L220.385,178.089L233.446,174.895Z" style="fill:rgb(35,35,35);fill-rule:nonzero;"/>
        <path d="M233.131,173.607L232.456,170.845L219.394,174.04L220.07,176.802L233.131,173.607Z" style="fill:rgb(191,190,190);fill-rule:nonzero;"/>
        <rect x="216.233" y="163.508" width="5.328" height="32.342" style="fill:rgb(35,35,35);"/>
        <path d="M227.852,169.159L225.987,164.824L200.816,175.653L202.681,179.988L227.852,169.159Z" style="fill:rgb(191,190,190);fill-rule:nonzero;"/>
        <path d="M220.311,163.508L223.544,171.022L227.879,169.157L225.449,163.508L220.311,163.508Z" style="fill:rgb(191,190,190);fill-rule:nonzero;"/>
        <path d="M219.502,167.614L225.987,164.824L227.852,169.159L221.367,171.949L219.502,167.614Z" style="fill:rgb(132,133,134);fill-rule:nonzero;"/>
        <path d="M221.108,167.911L225.098,166.194L226.246,168.861L222.256,170.578L221.108,167.911Z" style="fill:rgb(191,190,190);fill-rule:nonzero;"/>
        <path d="M227.852,190.2L225.987,194.534L200.816,183.705L202.681,179.37L227.852,190.2Z" style="fill:rgb(191,190,190);fill-rule:nonzero;"/>
        <path d="M220.311,195.85L223.544,188.336L227.879,190.202L225.449,195.85L220.311,195.85Z" style="fill:rgb(191,190,190);fill-rule:nonzero;"/>
        <path d="M219.502,191.744L225.987,194.534L227.852,190.2L221.367,187.41L219.502,191.744Z" style="fill:rgb(132,133,134);fill-rule:nonzero;"/>
        <path d="M221.108,191.447L225.098,193.164L226.246,190.497L222.256,188.78L221.108,191.447Z" style="fill:rgb(191,190,190);fill-rule:nonzero;"/>
        <path d="M205.176,168.376C202.682,175.829 202.682,183.529 205.176,190.982C205.441,191.777 204.685,192.574 203.446,192.766C202.209,192.958 200.941,192.432 200.659,191.587C198.032,183.735 198.032,175.623 200.659,167.771C200.941,166.926 202.209,166.4 203.446,166.592C204.685,166.785 205.441,167.581 205.176,168.376Z" style="fill:rgb(3,4,4);fill-rule:nonzero;"/>
    </g>
    <defs>
        <radialGradient id="_Radial1" cx="0" cy="0" r="1" gradientUnits="userSpaceOnUse" gradientTransform="matrix(250,0,0,250,250,250)"><stop offset="0" style="stop-color:rgb(185,184,185);stop-opacity:1"/><stop offset="1" style="stop-color:rgb(144,144,144);stop-opacity:1"/></radialGradient>
        <radialGradient id="_Radial2" cx="0" cy="0" r="1" gradientUnits="userSpaceOnUse" gradientTransform="matrix(250,0,0,250,250,250)"><stop offset="0" style="stop-color:rgb(185,184,185);stop-opacity:1"/><stop offset="1" style="stop-color:rgb(144,144,144);stop-opacity:1"/></radialGradient>
    </defs>
</svg>
